<svg xmlns="http://www.w3.org/2000/svg" xmlns:xlink="http://www.w3.org/1999/xlink" viewBox="0 0 78 78">
  <defs>
    <style>
      .cls-1 {
        fill: url(#linear-gradient);
      }

      .cls-2 {
        fill: #fff;
      }

      .cls-3 {
        fill: #ff7474;
      }

      .cls-4 {
        filter: url(#Ellipse_58);
      }
    </style>
    <linearGradient id="linear-gradient" x1="-0.334" y1="0.135" x2="1.18" y2="-0.113" gradientUnits="objectBoundingBox">
      <stop offset="0" stop-color="#f09768"/>
      <stop offset="0.443" stop-color="#eb746c"/>
      <stop offset="1" stop-color="#e34874"/>
    </linearGradient>
    <filter id="Ellipse_58" x="0" y="0" width="78" height="78" filterUnits="userSpaceOnUse">
      <feOffset dy="3" input="SourceAlpha"/>
      <feGaussianBlur stdDeviation="3" result="blur"/>
      <feFlood flood-opacity="0.161"/>
      <feComposite operator="in" in2="blur"/>
      <feComposite in="SourceGraphic"/>
    </filter>
  </defs>
  <g id="Group_31" data-name="Group 31" transform="translate(814 -1987)">
    <g class="cls-4" transform="matrix(1, 0, 0, 1, -814, 1987)">
      <circle id="Ellipse_58-2" data-name="Ellipse 58" class="cls-1" cx="30" cy="30" r="30" transform="translate(9 6)"/>
    </g>
    <circle id="Ellipse_59" data-name="Ellipse 59" class="cls-2" cx="28" cy="28" r="28" transform="translate(-803 1995)"/>
    <g id="Group_30" data-name="Group 30">
      <circle id="Ellipse_16" data-name="Ellipse 16" class="cls-3" cx="3.2" cy="3.2" r="3.2" transform="translate(-778 2021)"/>
      <path id="Path_92" data-name="Path 92" class="cls-3" d="M9,2,7.17,4H4A2.006,2.006,0,0,0,2,6V18a2.006,2.006,0,0,0,2,2H20a2.006,2.006,0,0,0,2-2V6a2.006,2.006,0,0,0-2-2H16.83L15,2Zm3,15a5,5,0,1,1,5-5A5,5,0,0,1,12,17Z" transform="translate(-787 2012)"/>
    </g>
  </g>
</svg>
