<svg xmlns="http://www.w3.org/2000/svg" viewBox="0 0 16.318 18.035">
  <defs>
    <style>
      .cls-1 {
        fill: #002341;
      }
    </style>
  </defs>
  <g id="Group_12" data-name="Group 12" transform="translate(-7807.995 -2114)">
    <path id="Path_2" data-name="Path 2" class="cls-1" d="M47.145,116.634c-1.872-.192-3.688-2.219-4.146-2.5a2.2,2.2,0,0,0-.929-.385,1.663,1.663,0,0,0-.459-.021,1.838,1.838,0,0,0-1.059.407,3.358,3.358,0,0,0-.37.339A15.969,15.969,0,0,0,37,119.149a.813.813,0,0,0,.165.858l-1,1.783L34.749,121a.35.35,0,0,0-.476.133L31.6,125.848a.35.35,0,0,0,.134.476l1.068.6a.8.8,0,1,0,1.33-.1l1.457-2.557,1.021-1.819,1.266-2.193a.813.813,0,0,0,.63-.5,11.427,11.427,0,0,1,1.459-2.509l.254,2.922a1.414,1.414,0,0,0,.384.858c-.652,1.189-2.419,4.439-3.057,5.546a1.035,1.035,0,0,0,1.794,1.034c.594-1.029,2.141-4.151,2.82-5.328a47.305,47.305,0,0,1,2.648,5.226,1.036,1.036,0,1,0,1.894-.837,46.378,46.378,0,0,0-2.974-5.794,1.435,1.435,0,0,0,.326-1.04l-.24-2.767a5.662,5.662,0,0,0,3.16,1.186.8.8,0,0,0,.085,0,.813.813,0,0,0,.082-1.622ZM33.5,127.642a.291.291,0,1,1,.291-.291.291.291,0,0,1-.291.291Z" transform="translate(7776.439 2003.88)"/>
    <ellipse id="Ellipse_1" data-name="Ellipse 1" class="cls-1" cx="1.734" cy="1.615" rx="1.734" ry="1.615" transform="translate(7816 2114)"/>
  </g>
</svg>
