<svg xmlns="http://www.w3.org/2000/svg" viewBox="0 0 27.87 20.001">
  <defs>
    <style>
      .cls-1 {
        fill: #bbb;
      }
    </style>
  </defs>
  <g id="businessman" transform="translate(0 -69.099)">
    <g id="Group_1743" data-name="Group 1743" transform="translate(0 69.1)">
      <path id="Path_398" data-name="Path 398" class="cls-1" d="M68.728,99.832a4.044,4.044,0,0,0,2.489,3.081,2.706,2.706,0,0,0,1.822-.006,4.108,4.108,0,0,0,2.494-3.081c.188-.017.438-.285.712-1.236.37-1.3-.023-1.5-.353-1.464a3.246,3.246,0,0,0,.142-.535c.564-3.377-1.1-3.5-1.1-3.5a2.556,2.556,0,0,0-1-.934,3.335,3.335,0,0,0-2.056-.433,2.949,2.949,0,0,0-.82.154h0a3.624,3.624,0,0,0-.9.461,4.761,4.761,0,0,0-.928.769,3.751,3.751,0,0,0-1,1.76,3.9,3.9,0,0,0,.006,1.72h0a3.723,3.723,0,0,0,.142.535c-.33-.028-.723.159-.353,1.464C68.289,99.553,68.54,99.821,68.728,99.832Z" transform="translate(-64.007 -90.425)"/>
      <path id="Path_399" data-name="Path 399" class="cls-1" d="M14.174,289.838a18.275,18.275,0,0,1-3.183-1.538l-1.532,4.852-.211.661-.689-1.948c1.577-2.2-.12-2.306-.416-2.306H8.121c-.3,0-1.993.108-.416,2.306l-.689,1.948-.211-.661L5.285,288.3A18.016,18.016,0,0,1,2.1,289.838c-2.192.8-2.056,2.6-2.1,5.979H16.276C16.23,292.44,16.367,290.635,14.174,289.838Z" transform="translate(0 -275.817)"/>
      <path id="Path_400" data-name="Path 400" class="cls-1" d="M215.851,165.582a3.688,3.688,0,0,1,4.174-5.376l1.446-1.446a5.568,5.568,0,0,0-5.991.763,2.052,2.052,0,0,1,.154.5,3.821,3.821,0,0,1-.171,1.72,4.994,4.994,0,0,1-.587,1.4,2.218,2.218,0,0,1-.467.518,6.167,6.167,0,0,1-.41,1.031C214.393,164.9,215.025,165.235,215.851,165.582Z" transform="translate(-201.813 -153.139)"/>
      <path id="Path_401" data-name="Path 401" class="cls-1" d="M300.561,213.5l-1.446,1.446a3.689,3.689,0,0,1-4.015,4.624,4.312,4.312,0,0,1,.535,1.156,6.936,6.936,0,0,1,.171.735,5.557,5.557,0,0,0,4.755-7.961Z" transform="translate(-278.295 -205.277)"/>
      <path id="Path_402" data-name="Path 402" class="cls-1" d="M316.017,166.075a7.334,7.334,0,0,1-5.917,11.036c.011.433.017.9.023,1.4,0,.205.006.421.006.644v.006a9.37,9.37,0,0,0,7.363-14.556Z" transform="translate(-292.441 -159.161)"/>
      <path id="Path_403" data-name="Path 403" class="cls-1" d="M271.854,77.955a1.917,1.917,0,1,0,1.036,1.036l5.507-5.507.917.12,2.426-2.426-1.834-.245-.245-1.834-2.426,2.432.12.917Z" transform="translate(-253.87 -69.1)"/>
      <path id="Path_404" data-name="Path 404" class="cls-1" d="M228.94,94.18a7.353,7.353,0,0,1,7.238.114l1.481-1.481a9.391,9.391,0,0,0-9.459-.547c.011.017.028.034.04.051A3.867,3.867,0,0,1,228.94,94.18Z" transform="translate(-215.205 -89.983)"/>
    </g>
  </g>
</svg>
