<svg xmlns="http://www.w3.org/2000/svg" viewBox="0 0 13.986 13.983">
  <defs>
    <style>
      .cls-1, .cls-2 {
        fill: #002341;
      }

      .cls-1 {
        stroke: #002341;
        stroke-width: 2px;
      }
    </style>
  </defs>
  <g id="Group_15" data-name="Group 15" transform="translate(-7809.014 -2302.002)">
    <path id="Path_421" data-name="Path 421" class="cls-1" d="M80.633,128.684a.33.33,0,0,0-.614.243,3.627,3.627,0,1,1-2.038-2.039.33.33,0,0,0,.244-.614,4.283,4.283,0,1,0,2.408,2.41Z" transform="translate(7738.622 2179.472)"/>
    <path id="Path_422" data-name="Path 422" class="cls-2" d="M12.291,58.142a.33.33,0,1,0-.635.182A5.6,5.6,0,1,1,7.815,54.48.331.331,0,1,0,8,53.845a6.26,6.26,0,1,0,4.294,4.3Z" transform="translate(7809 2249.862)"/>
    <path id="Path_423" data-name="Path 423" class="cls-2" d="M149.333,200.434a.33.33,0,1,0-.658.059c0,.047.006.1.006.143a1.648,1.648,0,1,1-1.648-1.649,1.027,1.027,0,0,1,.148.007.33.33,0,1,0,.061-.658c-.067-.006-.138-.009-.208-.009a2.309,2.309,0,1,0,2.309,2.309C149.342,200.569,149.339,200.5,149.333,200.434Z" transform="translate(7668.232 2109.095)"/>
    <path id="Path_424" data-name="Path 424" class="cls-2" d="M229.654,2.272a.659.659,0,0,0-.61-.408h-1.152V.713a.661.661,0,0,0-1.128-.467L224.839,2.17a.984.984,0,0,0-.29.7V4.74l-2.684,2.684a.33.33,0,0,0,.467.467l2.684-2.684h1.869a.984.984,0,0,0,.7-.29l1.924-1.924a.658.658,0,0,0,.145-.721Zm-4.444.6a.328.328,0,0,1,.1-.233L227.231.713V2.058L225.21,4.079V2.87Zm1.909,1.579a.332.332,0,0,1-.233.1h-1.208L227.7,2.525h1.345Z" transform="translate(7593.296 2301.949)"/>
  </g>
</svg>
