<svg xmlns="http://www.w3.org/2000/svg" width="64" height="88" viewBox="0 0 64 88">
  <g id="noun_task_1786636" transform="translate(-18 -6)">
    <g id="Group_107" data-name="Group 107" transform="translate(0 -952.362)">
      <path id="Path_54" data-name="Path 54" d="M18,958.362v88H66v-14a2.121,2.121,0,0,1,2-2H82v-72ZM44.031,968.3a2,2,0,0,1,1.5,3.344l-10,12a2.084,2.084,0,0,1-2.937.125l-6-6a2,2,0,1,1,2.812-2.844l4.469,4.469,8.594-10.312a2.024,2.024,0,0,1,1.312-.75,1.99,1.99,0,0,1,.25-.031ZM50,977.362H72a2,2,0,0,1,0,4H50a2,2,0,0,1,0-4ZM44.031,990.3a2,2,0,0,1,1.5,3.344l-10,12a2.084,2.084,0,0,1-2.937.125l-6-6a2,2,0,1,1,2.812-2.844l4.469,4.469,8.594-10.312a2.024,2.024,0,0,1,1.312-.75,1.99,1.99,0,0,1,.25-.031ZM50,999.362H72a2,2,0,0,1,0,4H50a2,2,0,0,1,0-4ZM44.031,1012.3a2,2,0,0,1,1.5,3.344l-10,12a2.084,2.084,0,0,1-2.937.125l-6-6a2,2,0,1,1,2.812-2.844l4.469,4.469,8.594-10.312a2.023,2.023,0,0,1,1.312-.75,1.924,1.924,0,0,1,.25-.031ZM50,1021.36H72a2,2,0,0,1,0,4H50a2,2,0,0,1,0-4Zm20,13v10l10-10Z" fill="#50687f"/>
    </g>
  </g>
</svg>
