<svg xmlns="http://www.w3.org/2000/svg" xmlns:xlink="http://www.w3.org/1999/xlink" width="91" height="91" viewBox="0 0 91 91">
  <defs>
    <filter id="Ellipse_1" x="0" y="0" width="91" height="91" filterUnits="userSpaceOnUse">
      <feOffset dy="3" input="SourceAlpha"/>
      <feGaussianBlur stdDeviation="3" result="blur"/>
      <feFlood flood-opacity="0.161"/>
      <feComposite operator="in" in2="blur"/>
      <feComposite in="SourceGraphic"/>
    </filter>
  </defs>
  <g id="Group_1" data-name="Group 1" transform="translate(-1186 -447)">
    <g transform="matrix(1, 0, 0, 1, 1186, 447)" filter="url(#Ellipse_1)">
      <circle id="Ellipse_1-2" data-name="Ellipse 1" cx="36.5" cy="36.5" r="36.5" transform="translate(9 6)" fill="#fff"/>
    </g>
    <g id="noun_Announcement_552563" transform="translate(1216.992 477)">
      <g id="Group_10" data-name="Group 10" transform="translate(0.008 0)">
        <g id="Group_6" data-name="Group 6" transform="translate(0 3.951)">
          <path id="Path_100" data-name="Path 100" d="M75.483,123.667a30.689,30.689,0,0,1,4.2,12.973.15.15,0,0,1-.173.15h0a28.925,28.925,0,0,0-9.83-.531c-.914.108-1.817.281-2.725.437-.15.03-.221-.024-.3-.15a11.264,11.264,0,0,1-1.679-5.013c-.012-.162.054-.215.179-.275a29.409,29.409,0,0,0,9.4-6.77,10.6,10.6,0,0,0,.681-.843.15.15,0,0,1,.245.018Z" transform="translate(-61.4 -122.454)" fill="#d83a5f"/>
          <path id="Path_101" data-name="Path 101" d="M115.488,349.813a3.048,3.048,0,0,1-1.254-1.386,9.015,9.015,0,0,1-1-2.564,3.112,3.112,0,0,0-1.2-1.775,4.261,4.261,0,0,1-.371-.3c-.209-.2-.191-.371.072-.473a8.857,8.857,0,0,1,1.172-.365,13.476,13.476,0,0,1,4.153-.287c.209.018.311.108.3.3a7.192,7.192,0,0,1-.09,1.076,6.7,6.7,0,0,0,.531,4.183,3.81,3.81,0,0,0,.926.866.363.363,0,0,1-.084.6,4.788,4.788,0,0,1-3.151.125Z" transform="translate(-105.151 -328.384)" fill="#d83a5f"/>
          <path id="Path_102" data-name="Path 102" d="M7.765,259.983a11.833,11.833,0,0,0,1.661,4.961.107.107,0,0,1-.066.15,6.825,6.825,0,0,1-1.96.431,2.278,2.278,0,0,1-2.068-1.446,3.385,3.385,0,0,1-.383-1.829,2.365,2.365,0,0,1,1.565-1.96c.359-.15.723-.263,1.112-.395a.1.1,0,0,1,.138.084Z" transform="translate(-4.941 -250.606)" fill="#d83a5f"/>
          <path id="Path_103" data-name="Path 103" d="M248.271,118.877a.371.371,0,0,1-.233.419c-.215.09-.443.215-.663.018a.369.369,0,0,1-.09-.227,34.635,34.635,0,0,0-4.56-14.049c-.168-.287,0-.419.543-.555a.257.257,0,0,1,.287.126,40.23,40.23,0,0,1,3.376,7.691c.5,1.651,1.218,5.654,1.266,5.976C248.208,118.266,248.25,118.673,248.271,118.877Z" transform="translate(-228.466 -104.475)" fill="#d83a5f"/>
        </g>
        <g id="Group_7" data-name="Group 7" transform="translate(20.345 3.295)">
          <path id="Path_104" data-name="Path 104" d="M349.932,105.982l-.914-.479A8,8,0,0,0,345.6,94.712l.479-.92a.345.345,0,0,1,.485-.15,9.415,9.415,0,0,1,3.855,12.172.362.362,0,0,1-.486.168Z" transform="translate(-345.6 -93.596)" fill="#d83a5f"/>
        </g>
        <g id="Group_8" data-name="Group 8" transform="translate(23.32)">
          <path id="Path_105" data-name="Path 105" d="M400.677,55.146l-.621-.365a.656.656,0,0,1-.245-.771,12.912,12.912,0,0,0,.15-7.786,10.666,10.666,0,0,0-4.2-5.964.665.665,0,0,1-.215-.783l.3-.75a.459.459,0,0,1,.681-.263,12.613,12.613,0,0,1,5.019,7.1,15.229,15.229,0,0,1-.2,9.28.462.462,0,0,1-.672.3Z" transform="translate(-395.496 -38.396)" fill="#d83a5f"/>
        </g>
        <g id="Group_9" data-name="Group 9" transform="translate(18.398 6.383)">
          <path id="Path_106" data-name="Path 106" d="M315.892,153.175l-.555-.287a.392.392,0,0,1-.178-.5,4.75,4.75,0,0,0-1.865-5.892.392.392,0,0,1-.15-.509l.287-.555a.384.384,0,0,1,.543-.15,6.152,6.152,0,0,1,2.438,7.7.374.374,0,0,1-.525.191Z" transform="translate(-313.103 -145.228)" fill="#d83a5f"/>
        </g>
      </g>
    </g>
  </g>
</svg>
