<svg xmlns="http://www.w3.org/2000/svg" viewBox="0 0 14.86 14.998">
  <defs>
    <style>
      .cls-1 {
        fill: #002341;
      }
    </style>
  </defs>
  <path id="Path_418" data-name="Path 418" class="cls-1" d="M21.618,8.911H8.961a.437.437,0,1,1,0-.874h11a.523.523,0,1,0,0-1.046H8.61A1.222,1.222,0,0,0,7.389,8.209V19.216a.631.631,0,0,0,.631.631H9.362a4.6,4.6,0,0,0,7.776,0h4.48a.631.631,0,0,0,.631-.631V9.543a.631.631,0,0,0-.631-.632Zm-8.368,12.2a3.738,3.738,0,0,1-3.734-3.734,3.788,3.788,0,0,1,.029-.465,3.734,3.734,0,1,1,3.7,4.2Zm8.034-7.94h-3.42a1.17,1.17,0,1,1,0-2.341h3.419ZM17.479,12a1.016,1.016,0,1,1,0,.005Zm-2.534,3.8a.262.262,0,0,0-.262-.262H11.864a.262.262,0,1,0,0,.523h1.142a.7.7,0,0,1,.661.476h-1.8a.262.262,0,1,0,0,.523h1.776a.7.7,0,0,1-.633.4H11.864a.262.262,0,0,0-.18.451l1.891,1.8a.262.262,0,0,0,.36-.379l-1.416-1.345h.487a1.226,1.226,0,0,0,1.187-.928h.491a.262.262,0,0,0,0-.523H14.21a1.219,1.219,0,0,0-.2-.476h.675a.262.262,0,0,0,.26-.261Z" transform="translate(-7.389 -6.991)"/>
</svg>
