<svg xmlns="http://www.w3.org/2000/svg" width="79.904" height="96.609" viewBox="0 0 79.904 96.609">
  <g id="Group_5" data-name="Group 5" transform="translate(-10.054 -2.331)">
    <g id="Group_4" data-name="Group 4">
      <path id="Path_98" data-name="Path 98" d="M55.1,63.7a27.3,27.3,0,0,1-3-2.1v.1c-.4,3.4-1,7.6-1.7,9.1-2.3,4.5-9.7,19.9-9.8,20.1a4.638,4.638,0,0,0,2.1,6.2,4.919,4.919,0,0,0,2,.5A4.778,4.778,0,0,0,48.9,95c.1-.1,7.5-15.5,9.8-20a27.647,27.647,0,0,0,1.9-6.8,41.271,41.271,0,0,0-4.4-3.6,3.126,3.126,0,0,0-1.1-.9Z" fill="#50687f"/>
      <path id="Path_99" data-name="Path 99" d="M88.6,48.5c-2.9-2.3-7.4-6.4-8.6-8.2-.3-.5-.7-1.4-1.1-2.3-2-4.4-5.8-12.5-14.2-12.5,0,0-4.5-.1-5.9-.1-9.5-.2-15.7,8.2-17.2,11.2-1.4,3-4.6,12.5-5.2,14.6a3.442,3.442,0,0,0,1,3.5L32.6,66.2l-8.3-3.5a3.234,3.234,0,0,0-4.2,1.7L10.3,87.9A3.234,3.234,0,0,0,12,92.1l7.7,3.2a6.624,6.624,0,0,1,0-4.8,6.55,6.55,0,0,1,6-4,6.963,6.963,0,0,1,2.5.5,6.191,6.191,0,0,1,1.7,1.1l7-16.6a3.234,3.234,0,0,0-1.7-4.2l4.9-11.6a3.745,3.745,0,0,0,3.3-2.6c.6-2,3.7-11.1,4.8-13.4a14.267,14.267,0,0,1,3-3.8c-1.6,6.7-1,15.9-.7,19.8.2,2.5,4.6,5.1,7.1,6.8,4.1,2.8,10.4,9.2,11.7,12.1,1,2.3,5.3,14.5,7.5,20a4.745,4.745,0,0,0,4.3,3,5.079,5.079,0,0,0,1.7-.3,4.532,4.532,0,0,0,2.6-6c-.3-.7-6.3-17.4-7.6-20.4-1.1-2.6-5.8-8.3-8.9-11.6l-.2-.2c-.1-1.6,0-13.3,1.8-21.5.6,1.1,1.2,2.3,1.8,3.5a29.41,29.41,0,0,0,1.6,3.1c2.2,3.5,8.9,9,10.2,10a3.964,3.964,0,0,0,2.2.8,3.721,3.721,0,0,0,2.8-1.3,3.658,3.658,0,0,0-.5-5.2Z" fill="#50687f"/>
      <circle id="Ellipse_1" data-name="Ellipse 1" cx="9.9" cy="9.9" r="9.9" transform="translate(51.577 22.131) rotate(-89.026)" fill="#50687f"/>
      <circle id="Ellipse_2" data-name="Ellipse 2" cx="4.5" cy="4.5" r="4.5" transform="translate(19.812 95.475) rotate(-67.358)" fill="#50687f"/>
    </g>
  </g>
</svg>
