<svg xmlns="http://www.w3.org/2000/svg" xmlns:xlink="http://www.w3.org/1999/xlink" width="91" height="91" viewBox="0 0 91 91">
  <defs>
    <filter id="Ellipse_1" x="0" y="0" width="91" height="91" filterUnits="userSpaceOnUse">
      <feOffset dy="3" input="SourceAlpha"/>
      <feGaussianBlur stdDeviation="3" result="blur"/>
      <feFlood flood-opacity="0.161"/>
      <feComposite operator="in" in2="blur"/>
      <feComposite in="SourceGraphic"/>
    </filter>
  </defs>
  <g id="Group_1" data-name="Group 1" transform="translate(-987 -420)">
    <g transform="matrix(1, 0, 0, 1, 987, 420)" filter="url(#Ellipse_1)">
      <circle id="Ellipse_1-2" data-name="Ellipse 1" cx="36.5" cy="36.5" r="36.5" transform="translate(9 6)" fill="#fff"/>
    </g>
    <path id="order_icon" d="M36.921,4.313a2.7,2.7,0,0,1,5.126-1.688l5.307,16.086a3.547,3.547,0,0,0-1.545-.059L40.672,3.075a1.251,1.251,0,1,0-2.375.784.725.725,0,1,1-1.375.454ZM57.826,16.932l-8.7,2.876a3.552,3.552,0,0,1,.709,1.238.186.186,0,0,0,.014.05l8.428-2.781a.725.725,0,1,0-.454-1.375Zm-8.676,4.333a2.847,2.847,0,1,1-3.6-1.812,2.847,2.847,0,0,1,3.6,1.812Zm-1.352.446a1.424,1.424,0,1,0-.906,1.8,1.424,1.424,0,0,0,.906-1.8ZM55.629,6.021l2.952,8.948a.363.363,0,0,1-.23.458l-9.292,3.066a.363.363,0,0,1-.458-.23L45.649,9.314a.363.363,0,0,1,.23-.458l9.3-3.067a.363.363,0,0,1,.454.231Zm-1.229,5.2-3.164-1.74-1.5,3.282,1,.459.651-1.42,1.176,3.564,1.125-.375-1.175-3.563,1.368.75ZM51.639,5.876,49.751.16a.231.231,0,0,0-.293-.148L47.841.546l-.007.015L47.819.554l-.854.281.7,2.125-.963.318L46,1.153l-.854.281-.006.014-.015-.008-1.608.53a.231.231,0,0,0-.148.293L45.26,7.984a.231.231,0,0,0,.288.143l5.941-1.96a.231.231,0,0,0,.145-.3Z" transform="translate(985.183 449.999)" fill="#d83a5f"/>
  </g>
</svg>
