<svg xmlns="http://www.w3.org/2000/svg" viewBox="0 0 14.504 14.506">
  <defs>
    <style>
      .cls-1 {
        fill: #002341;
        stroke: #002341;
        stroke-width: 0.5px;
      }
    </style>
  </defs>
  <g id="Group_13" data-name="Group 13" transform="translate(-7808.75 -2177.747)">
    <path id="Path_425" data-name="Path 425" class="cls-1" d="M200.793,346.2a.282.282,0,0,0-.283.283v1.262a1.293,1.293,0,1,0,.566,0v-1.262a.282.282,0,0,0-.283-.283Zm.727,2.806a.727.727,0,1,1-.727-.727h0A.728.728,0,0,1,201.52,349.006Z" transform="translate(7615.207 1841.704)"/>
    <path id="Path_426" data-name="Path 426" class="cls-1" d="M200.793,4.1a.282.282,0,0,0,.283-.283V2.552a1.293,1.293,0,1,0-.566,0V3.813a.282.282,0,0,0,.283.287Zm-.727-2.806a.727.727,0,1,1,.727.727h0a.728.728,0,0,1-.727-.731Z" transform="translate(7615.207 2178)"/>
    <path id="Path_427" data-name="Path 427" class="cls-1" d="M347.745,201.076a1.293,1.293,0,1,0,0-.566h-1.262a.283.283,0,0,0,0,.566Zm.535-.283a.727.727,0,1,1,.727.727A.727.727,0,0,1,348.28,200.793Z" transform="translate(7472.704 1984.207)"/>
    <path id="Path_428" data-name="Path 428" class="cls-1" d="M0,200.793a1.291,1.291,0,0,0,2.552.283H3.813a.283.283,0,1,0,0-.566H2.552A1.291,1.291,0,0,0,0,200.793Zm2.017,0a.727.727,0,1,1-.727-.727A.727.727,0,0,1,2.017,200.793Z" transform="translate(7809 1984.207)"/>
    <path id="Path_429" data-name="Path 429" class="cls-1" d="M313.659,313.646a.281.281,0,0,0,0,.4l.893.893a1.279,1.279,0,1,0,.4-.4l-.893-.893A.284.284,0,0,0,313.659,313.646Zm1.47,1.47h0a.729.729,0,1,1-.212.515.706.706,0,0,1,.212-.514Z" transform="translate(7504.395 1873.408)"/>
    <path id="Path_430" data-name="Path 430" class="cls-1" d="M60.7,58.878a1.291,1.291,0,1,0-.223,2l.893.893a.283.283,0,1,0,.4-.4l-.893-.893a1.275,1.275,0,0,0,.2-.689A1.258,1.258,0,0,0,60.7,58.878ZM60.3,60.3h0a.725.725,0,1,1,.212-.512.7.7,0,0,1-.212.512Z" transform="translate(7752.173 2121.173)"/>
    <path id="Path_431" data-name="Path 431" class="cls-1" d="M314.251,59.693a1.285,1.285,0,0,0,.2.689l-.893.893a.283.283,0,1,0,.4.4l.9-.893a1.29,1.29,0,1,0-.606-1.09Zm.781-.512a.725.725,0,1,1,0,1.027h0a.721.721,0,0,1-.212-.512.7.7,0,0,1,.212-.515Z" transform="translate(7504.492 2121.271)"/>
    <path id="Path_432" data-name="Path 432" class="cls-1" d="M61.773,313.659a.281.281,0,0,0-.4,0l-.893.893a1.289,1.289,0,1,0,.4.4l.893-.893a.278.278,0,0,0,0-.4Zm-1.47,2.494a.724.724,0,1,1,0-1.024h0a.723.723,0,0,1,0,1.024Z" transform="translate(7752.173 1873.395)"/>
    <path id="Path_433" data-name="Path 433" class="cls-1" d="M199.1,163.089h.655a.436.436,0,1,1,0,.872h-1.179a.283.283,0,1,0,0,.566h.569v.412a.283.283,0,1,0,.566,0v-.412h.046a1,1,0,0,0,0-2.005H199.1a.435.435,0,1,1,0-.87h1.156a.283.283,0,1,0,0-.566h-.546v-.4a.283.283,0,0,0-.566,0v.4H199.1a1,1,0,1,0,0,2Z" transform="translate(7616.566 2022.188)"/>
  </g>
</svg>
