<svg xmlns="http://www.w3.org/2000/svg" viewBox="0 0 26.61 20">
  <defs>
    <style>
      .cls-1 {
        fill: #bbb;
      }
    </style>
  </defs>
  <g id="visitor-identification" transform="translate(0.006 -36.453)">
    <path id="Path_405" data-name="Path 405" class="cls-1" d="M22.8,38.433v-.505a1.776,1.776,0,0,0-.351-1.193,1.009,1.009,0,0,0-.718-.263h-1.78s-.949,0-.949.891v.95c0,1.011-1.858.985-1.858.985H9.493S7.6,39.26,7.6,38.433v-1.21s.06-.77-.95-.77H4.75s-.952,0-.952.83v1.151s.034.495-.736.747c-.587.192-1.87.01-2.49.541A1.855,1.855,0,0,0,0,41.221V54.612a1.872,1.872,0,0,0,1.9,1.841H24.584s2.02-.118,2.02-1.781V41.163a1.894,1.894,0,0,0-1.961-1.84S22.8,39.2,22.8,38.433Zm-2.852-.062a.9.9,0,0,1,.891-.95h.06a.952.952,0,0,1,.952.95v1.9a.926.926,0,0,1-.921.949h-.06a.926.926,0,0,1-.921-.949v-1.9Zm-3.254,9.5h4.751a.475.475,0,1,1,0,.95H16.7a.475.475,0,1,1,0-.95Zm5.2,2.435a.456.456,0,0,1-.5.445H16.756a.457.457,0,0,1-.5-.445.505.505,0,0,1,.5-.5h4.633a.5.5,0,0,1,.5.5ZM8.123,42.175a2.833,2.833,0,0,1,2.653,3.053A2.951,2.951,0,0,1,8.123,48.4a2.951,2.951,0,0,1-2.652-3.177,2.832,2.832,0,0,1,2.652-3.053ZM4.779,38.321a.853.853,0,0,1,.891-.891h.06a.876.876,0,0,1,.92.891v1.951a.951.951,0,0,1-.949.949H5.639a.878.878,0,0,1-.859-.949Zm8.308,14.091a.91.91,0,0,1-.754.29H4a1.027,1.027,0,0,1-.81-.3c-.134-.184-.041-.558.051-.767l.225-.511a10.575,10.575,0,0,1,1.326-2.19,1.009,1.009,0,0,1,1.283-.22,3.441,3.441,0,0,1,.607.538A1.971,1.971,0,0,0,8,49.709h.414a1.966,1.966,0,0,0,1.321-.462,3.7,3.7,0,0,1,.6-.55.923.923,0,0,1,1.194.233A9.19,9.19,0,0,1,12.8,51.145l.23.5c.09.208.188.58.058.767Zm8.405.211h-4.84a.461.461,0,1,1,0-.921h4.84a.461.461,0,0,1,0,.921Z"/>
  </g>
</svg>
