<svg xmlns="http://www.w3.org/2000/svg" viewBox="0 0 22.139 18.002">
  <defs>
    <style>
      .cls-1 {
        fill: #002341;
      }
    </style>
  </defs>
  <g id="Group_14" data-name="Group 14" transform="translate(-7805 -2237)">
    <path id="Path_371" data-name="Path 371" class="cls-1" d="M39.541.9,39.485.653c.327-.076.662-.137.994-.184l.035.248C40.189.762,39.861.823,39.541.9Z" transform="translate(7774.257 2236.635)"/>
    <path id="Path_372" data-name="Path 372" class="cls-1" d="M58.489.854c-.319-.073-.646-.13-.975-.172l.033-.248c.335.043.67.1,1,.176Z" transform="translate(7760.219 2236.662)"/>
    <path id="Path_373" data-name="Path 373" class="cls-1" d="M48.548.262l-.012-.25c.337-.016.68-.016,1.012,0l-.009.251C49.209.247,48.877.247,48.548.262Z" transform="translate(7767.209 2237)"/>
    <path id="Path_374" data-name="Path 374" class="cls-1" d="M7.252,76.752c.174.289.362.572.559.843l.2-.148c-.193-.264-.377-.54-.547-.824Z" transform="translate(7799.354 2177.338)"/>
    <path id="Path_375" data-name="Path 375" class="cls-1" d="M3.267,68.675c.12.317.254.63.4.93l.225-.109c-.142-.293-.274-.6-.391-.908Z" transform="translate(7802.457 2183.598)"/>
    <path id="Path_376" data-name="Path 376" class="cls-1" d="M.826,60.02c.061.332.137.664.226.986l.241-.067c-.088-.316-.162-.64-.221-.965Z" transform="translate(7804.357 2190.303)"/>
    <path id="Path_377" data-name="Path 377" class="cls-1" d="M.25,51.082H0c0,.336.016.676.046,1.011L.3,52.071a9.647,9.647,0,0,1-.05-.989Z" transform="translate(7805 2197.229)"/>
    <path id="Path_378" data-name="Path 378" class="cls-1" d="M.572,42.027l-.246-.044c-.058.331-.1.667-.133,1L.442,43C.471,42.679.514,42.349.572,42.027Z" transform="translate(7804.85 2204.313)"/>
    <path id="Path_379" data-name="Path 379" class="cls-1" d="M2.339,33.256,2.1,33.169c-.118.318-.222.641-.31.963l.242.066C2.122,33.884,2.224,33.567,2.339,33.256Z" transform="translate(7803.604 2211.172)"/>
    <path id="Path_380" data-name="Path 380" class="cls-1" d="M5.678,25.06l-.215-.128c-.172.288-.333.588-.478.892l.226.107C5.353,25.636,5.51,25.341,5.678,25.06Z" transform="translate(7801.119 2217.588)"/>
    <path id="Path_381" data-name="Path 381" class="cls-1" d="M9.661,18.326l.2.147c.193-.266.4-.527.616-.775l-.189-.164C10.069,17.786,9.858,18.054,9.661,18.326Z" transform="translate(7797.479 2223.348)"/>
    <path id="Path_382" data-name="Path 382" class="cls-1" d="M16.415,11.207c-.261.209-.517.434-.76.666l.173.182c.238-.229.489-.45.743-.653Z" transform="translate(7792.811 2228.273)"/>
    <path id="Path_383" data-name="Path 383" class="cls-1" d="M82.84,11.672c-.242-.231-.5-.453-.763-.664l-.157.2a9.793,9.793,0,0,1,.748.649Z" transform="translate(7741.215 2228.428)"/>
    <path id="Path_384" data-name="Path 384" class="cls-1" d="M23.764,6.367l-.12-.219c-.293.158-.585.334-.867.522l.139.207C23.193,6.694,23.478,6.523,23.764,6.367Z" transform="translate(7787.266 2232.213)"/>
    <path id="Path_385" data-name="Path 385" class="cls-1" d="M75.442,6.51c-.28-.184-.572-.358-.871-.517l-.117.221c.29.155.577.325.851.505Z" transform="translate(7747.029 2232.332)"/>
    <path id="Path_386" data-name="Path 386" class="cls-1" d="M31.832,2.764l-.078-.237c-.322.106-.641.227-.946.359l.1.23C31.206,2.986,31.517,2.869,31.832,2.764Z" transform="translate(7781.014 2235.033)"/>
    <path id="Path_387" data-name="Path 387" class="cls-1" d="M67.255,2.783c-.308-.13-.627-.249-.949-.353l-.076.238c.315.1.627.217.928.345Z" transform="translate(7753.434 2235.107)"/>
    <path id="Path_388" data-name="Path 388" class="cls-1" d="M87.721,16.513l-.6-.6.247-2.045-.275-.272-.708,1.58-.41-.409a.336.336,0,0,0-.135-.08L85.978,14l-.22-.22-.327.765-.765.326.219.22.683-.138a.346.346,0,0,0,.08.135l.41.41-1.581.709.272.274L86.8,16.24l.6.6a.646.646,0,0,0,.415.192.107.107,0,0,0,.07-.032.1.1,0,0,0,.029-.074.653.653,0,0,0-.193-.413Z" transform="translate(7739.225 2226.414)"/>
    <path id="Path_389" data-name="Path 389" class="cls-1" d="M25.317,15.112a7.328,7.328,0,1,0,7.328,7.328,7.328,7.328,0,0,0-7.328-7.328Zm5.973,8.522a.739.739,0,0,1,.219.393,6.391,6.391,0,0,1-9.239,4.032c.009-.04.018-.08.027-.123.054-.261.457-.386.63-.558s.5-.271.608-.491c.068-.145-.028-.33.03-.465.044-.1.212-.212.291-.291a1.758,1.758,0,0,0,.346-.983h-.888c-.28,0-.226-.332-.227-.538a.762.762,0,0,0-.047-.347c-.061-.115-.26-.081-.366-.135a.706.706,0,0,1-.375-.485c-.024-.136-.019-.235-.19-.228s-.324.141-.48.141H19.741c0,.07-.04.3.024.331l.48.24c.239.12.309.418.425.651s.245.455.345.69a2.63,2.63,0,0,0,.441.849c.1.1.28.078.321.214a1.123,1.123,0,0,1-.041.546c-.043.186-.1.369-.146.554a6.4,6.4,0,0,1-2.564-4.055c.089-.007.178-.019.23-.019.173,0,.178-.013.3-.137s.181-.142.181-.293V22.6l.637.318c.009-.257.193-.29.405-.326.252-.042.418-.311.651-.311a1.209,1.209,0,0,1,.453.1.544.544,0,0,0,.313.037c.133-.042.1-.279.148-.386.066-.154.167-.373.345-.387.194-.015.445-.1.234-.314a3.545,3.545,0,0,1-.563-.815c-.067-.123-.084-.317-.2-.4-.247-.186-.618.066-.8.232-.1.094.059.31-.084.371a.989.989,0,0,1-.777.063c-.131-.063-.212-.216-.361-.244-.1-.019-.082-.047-.082-.162v-.582c0-.081.022-.049.1-.07.288-.083.118-.458.4-.463.331-.006,0-.57-.085-.685a.268.268,0,0,0-.155-.107,6.38,6.38,0,0,1,9.665-.383,9.961,9.961,0,0,1-.964.986,3.79,3.79,0,0,1-.588.3,1.529,1.529,0,0,1-.663.045c-.055,0-.7-.009-.7.008,0,.191.1.581-.089.674a2.348,2.348,0,0,0-.644.369c-.05.05-.254.192-.2.251h0a.2.2,0,0,0-.1-.027,1.6,1.6,0,0,0-.778.157c-.138.087-.1.219-.119.364a.792.792,0,0,1-.189.456c-.14.144-.118.168-.118.4l.744-.082c.029,0,.211,0,.211-.037,0-.062-.035-.27.008-.312l.283-.283c.057-.057.162.106.209.153.086.086.171.1.079.2l-.26.261a1.814,1.814,0,0,0,.319-.007,1.013,1.013,0,0,1,.318-.63.437.437,0,0,1,.608-.026c.077.062.03.261.03.344a4.437,4.437,0,0,0,.014.637c.14,0,.262.032.37-.059.369-.311.852-.236,1.21-.578l.319.637-.759.253c-.02.006-.191.077-.2.06a2.041,2.041,0,0,0-.2-.331c-.1-.134-.131-.018-.11.106a1.086,1.086,0,0,0,.3.543,2.776,2.776,0,0,1,.326.645c-.02-.392.55.231.637.318l.4-.4.2-.2c.054-.054-.006-.07-.048-.128-.225-.314.353-.223.528-.223a1.1,1.1,0,0,1,.826.319c-.291-.029.028.314.1.385Z" transform="translate(7790.994 2225.234)"/>
    <path id="Path_390" data-name="Path 390" class="cls-1" d="M50.8,37.419l-.212.213c-.073.027-.193.032-.2.115-.005.1-.01.206-.015.309l.416-.208C50.831,37.826,50.8,37.481,50.8,37.419Z" transform="translate(7765.781 2207.865)"/>
    <path id="Path_391" data-name="Path 391" class="cls-1" d="M54.728,32.339c.079,0,.218.044.218-.05v-.006a.1.1,0,0,0,.085.053c-.025.107-.053.214-.085.321l.291-.291c.065-.065.028-.228.028-.314v-.669l-.029.055a1.211,1.211,0,0,0-.011-.134l-.037.223a2.767,2.767,0,0,0-.242.561v-.7C54.881,31.512,54.389,32.339,54.728,32.339Z" transform="translate(7762.48 2212.625)"/>
    <path id="Path_392" data-name="Path 392" class="cls-1" d="M52.125,51.156a1.1,1.1,0,0,0,.55-.311l-.708-.236c-.264-.088-.265-.117-.393-.373a1.671,1.671,0,0,0-.326-.5c-.114-.114-.485-.367-.485-.535,0-.254.049-.269-.189-.269h-2.36a3.513,3.513,0,0,0-.521.643c-.252.42.063.629.339.931.295.323.181.87.732.967a3.745,3.745,0,0,0,.619.007c.024,0,.46-.062.418-.138a1.846,1.846,0,0,1,.037.414c.037.226.086.45.136.674a3.754,3.754,0,0,1,.151.8c0,.281.292.452.485.644.073.073.115.152.219.152h.54c.089,0-.077-1.1.206-1.245.081-.04.241,0,.288-.088.033-.063,0-.14.03-.2.079-.153.266,0,.284-.255a1.35,1.35,0,0,0-.166-.787C51.837,51.257,51.892,51.195,52.125,51.156Z" transform="translate(7767.936 2198.898)"/>
    <path id="Path_393" data-name="Path 393" class="cls-1" d="M37.084,26.525a4.011,4.011,0,0,0-.524-.442,1.118,1.118,0,0,0-.746-.191c-.145,0-.292-.01-.437,0-.062,0-.038.075-.056.121-.109.278-.561.612-.782.833.306,0,.477.635.593.867a.93.93,0,0,1,.045.44c0,.228-.02.267.138.425s.143.219.3.065l.465-.465c.1-.1.056-.268.056-.406,0-.2-.073-.287.134-.287a.6.6,0,0,0,.436-.1c.1-.084.172-.189.306-.215s.46-.082.4-.326C37.381,26.749,37.16,26.6,37.084,26.525Z" transform="translate(7778.107 2216.842)"/>
  </g>
</svg>
