<svg xmlns="http://www.w3.org/2000/svg" viewBox="0 0 150.035 150.021">
  <defs>
    <style>
      .cls-1 {
        fill: #fff;
      }
    </style>
  </defs>
  <g id="Group_7" data-name="Group 7" transform="translate(467 -463)">
    <path id="Path_353" data-name="Path 353" class="cls-1" d="M115.074,47.283A32.3,32.3,0,0,0,85.046,15.119a32.444,32.444,0,0,0-59.02,9.92A27.515,27.515,0,0,0,.431,56.574,28.027,28.027,0,0,0,28.418,79.983H52.432a49.988,49.988,0,1,0,62.642-32.7Zm-86.656,27.7A23.012,23.012,0,0,1,5.385,55.856,22.619,22.619,0,0,1,15.12,33.724a21.673,21.673,0,0,1,12.509-3.73h.016c.067,0,.36.021.427.021a2.5,2.5,0,0,0,2.464-2.087,27.446,27.446,0,0,1,50.889-9.141,2.5,2.5,0,0,0,2.089,1.25A27.336,27.336,0,0,1,110.04,45.992,49.939,49.939,0,0,0,54.329,74.984Zm71.694,64.984A44.989,44.989,0,1,1,145.1,94.979a44.989,44.989,0,0,1-44.988,44.988Zm0,0" transform="translate(-467.083 463.003)"/>
    <path id="Path_354" data-name="Path 354" class="cls-1" d="M262.217,273.58a10.231,10.231,0,0,1-14.136,0,9.926,9.926,0,0,1-2.93-7.069,2.5,2.5,0,0,0-5,0,15,15,0,0,0,25.6,10.6,2.5,2.5,0,1,0-3.534-3.534Zm0,0" transform="translate(-632.117 281.473)"/>
    <path id="Path_355" data-name="Path 355" class="cls-1" d="M256.2,236.528a22.494,22.494,0,1,0-3.534,3.534l19.54,19.54a2.5,2.5,0,0,0,3.534-3.534Zm-29.94-1.662a17.5,17.5,0,1,1,24.744,0,17.5,17.5,0,0,1-24.744,0Zm0,0" transform="translate(-615.602 325.491)"/>
    <path id="Exclusion_1" data-name="Exclusion 1" class="cls-1" d="M581.5-170.955h0a2.5,2.5,0,0,1-.624-.079,2.5,2.5,0,0,1-1.8-1.8,2.5,2.5,0,0,1,.706-2.443l17.76-17.767a17.449,17.449,0,0,1-3.431-8.92,17.451,17.451,0,0,1,1.778-9.391,17.453,17.453,0,0,1,6.439-7.038A17.449,17.449,0,0,1,611.506-221h.038v0h.054a17.39,17.39,0,0,1,10.308,3.358,17.388,17.388,0,0,1,6.353,8.788,17.387,17.387,0,0,1-.052,10.868,17.387,17.387,0,0,1-6.458,8.741A17.407,17.407,0,0,1,611.6-186a17.368,17.368,0,0,1-10.509-3.507L583.319-171.74A2.508,2.508,0,0,1,581.5-170.955Zm30-46.021c-8,0-14.5,6.056-14.5,13.5s6.5,13.5,14.5,13.5,14.5-6.056,14.5-13.5S619.5-216.976,611.5-216.976Z" transform="translate(-1046 783.976)"/>
  </g>
</svg>
