<svg xmlns="http://www.w3.org/2000/svg" width="18.667" height="14" viewBox="0 0 18.667 14">
  <path id="ic_contact_phone_24px" d="M17.111,3H1.556A1.56,1.56,0,0,0,0,4.556V15.444A1.56,1.56,0,0,0,1.556,17H17.111a1.553,1.553,0,0,0,1.548-1.556l.008-10.889A1.56,1.56,0,0,0,17.111,3ZM6.222,5.333a2.33,2.33,0,1,1-1.651.683,2.33,2.33,0,0,1,1.651-.683Zm4.667,9.333H1.556v-.778c0-1.556,3.111-2.411,4.667-2.411s4.667.856,4.667,2.411Zm2.994-3.111h1.276l1.174,1.556-1.548,1.548a5.842,5.842,0,0,1-2.123-3.1,5.664,5.664,0,0,1,0-3.111,5.813,5.813,0,0,1,2.123-3.1L16.333,6.9,15.159,8.444H13.883a4.581,4.581,0,0,0,0,3.111Z" transform="translate(0 -3)" fill="#50687f"/>
</svg>
