<svg xmlns="http://www.w3.org/2000/svg" viewBox="0 0 12.6 13.999">
  <defs>
    <style>
      .cls-1 {
        fill: #cd234b;
      }
    </style>
  </defs>
  <path id="ic_assignment_ind_24px" class="cls-1" d="M14.2,2.4H11.274a2.092,2.092,0,0,0-3.948,0H4.4A1.4,1.4,0,0,0,3,3.8v9.8A1.4,1.4,0,0,0,4.4,15h9.8a1.4,1.4,0,0,0,1.4-1.4V3.8a1.4,1.4,0,0,0-1.4-1.4Zm-4.9,0a.7.7,0,1,1-.7.7.7.7,0,0,1,.7-.7Zm0,2.8A2.1,2.1,0,1,1,7.2,7.3,2.1,2.1,0,0,1,9.3,5.2Zm4.2,8.4H5.1v-.98c0-1.4,2.8-2.17,4.2-2.17s4.2.77,4.2,2.17Z" transform="translate(-3 -1.001)"/>
</svg>
