<svg xmlns="http://www.w3.org/2000/svg" xmlns:xlink="http://www.w3.org/1999/xlink" width="91" height="91" viewBox="0 0 91 91">
  <defs>
    <filter id="Ellipse_1" x="0" y="0" width="91" height="91" filterUnits="userSpaceOnUse">
      <feOffset dy="3" input="SourceAlpha"/>
      <feGaussianBlur stdDeviation="3" result="blur"/>
      <feFlood flood-opacity="0.161"/>
      <feComposite operator="in" in2="blur"/>
      <feComposite in="SourceGraphic"/>
    </filter>
  </defs>
  <g id="Group_1" data-name="Group 1" transform="translate(-1192 -415)">
    <g transform="matrix(1, 0, 0, 1, 1192, 415)" filter="url(#Ellipse_1)">
      <circle id="Ellipse_1-2" data-name="Ellipse 1" cx="36.5" cy="36.5" r="36.5" transform="translate(9 6)" fill="#fff"/>
    </g>
    <path id="distribution_icon" d="M22.552,22.3a.4.4,0,0,0,.055-.011V22.3a1.724,1.724,0,1,0,0-.854v.008a.409.409,0,0,0-.055-.011H20.384a6.852,6.852,0,0,0-1.91-4.335l4.4-4.4a.428.428,0,0,0,.09-.134h0a1.725,1.725,0,1,0-.574-.56h0a.425.425,0,0,0-.125.085l-4.42,4.419h0a6.875,6.875,0,0,0-9.125.391h0l-2.75-2.75a.406.406,0,0,0-.045-.03h0a1.724,1.724,0,1,0-.605.605h0a.4.4,0,0,0,.03.045l2.781,2.763h0a6.852,6.852,0,0,0-1.518,3.891H4.45a.4.4,0,0,0-.055.011v-.007a1.724,1.724,0,1,0,0,.854v-.01a.409.409,0,0,0,.055.011H6.618A6.834,6.834,0,0,0,8.15,26.216L5.375,28.967a.4.4,0,0,0-.031.047h0a1.725,1.725,0,1,0,.605.605h0a.406.406,0,0,0,.043-.027l2.75-2.743h0a6.883,6.883,0,0,0,9.093.389l3.685,3.694a.409.409,0,0,0,.049.031h0a1.718,1.718,0,1,0,.605-.605h0a.414.414,0,0,0-.03-.046l-3.663-3.664A6.867,6.867,0,0,0,20.4,22.294h2.169Zm1.425-.738.064-.053a.326.326,0,0,1,.078-.039.274.274,0,0,1,.078-.025.363.363,0,0,1,.168,0,.259.259,0,0,1,.083.025.328.328,0,0,1,.078.039l.064.053.053.064a.324.324,0,0,1,.039.078.275.275,0,0,1,.025.078.434.434,0,0,1,0,.173.275.275,0,0,1-.025.078.325.325,0,0,1-.039.078l-.053.064-.069.05a.326.326,0,0,1-.078.039.259.259,0,0,1-.083.025.529.529,0,0,1-.083.009.581.581,0,0,1-.086-.009.273.273,0,0,1-.078-.025.326.326,0,0,1-.079-.039l-.058-.049a.679.679,0,0,1-.053-.064.325.325,0,0,1-.039-.078.275.275,0,0,1-.025-.078.653.653,0,0,1-.009-.086.454.454,0,0,1,.125-.308Zm-.521-10.633a.442.442,0,0,1,.091-.143.451.451,0,0,1,.613,0,.5.5,0,0,1,.091.143.405.405,0,0,1,0,.328.5.5,0,0,1-.091.143.445.445,0,0,1-.306.125.454.454,0,0,1-.306-.125.5.5,0,0,1-.091-.143.406.406,0,0,1,0-.326ZM4.846,13.415a.4.4,0,0,1-.1.143.436.436,0,0,1-.611,0,.445.445,0,0,1,0-.611.43.43,0,0,1,.7.469ZM3.154,21.958a.275.275,0,0,1-.025.078.325.325,0,0,1-.039.078l-.053.064c-.021.018-.044.035-.069.053a.241.241,0,0,1-.074.039.429.429,0,0,1-.164.035.638.638,0,0,1-.086-.009.272.272,0,0,1-.078-.025.326.326,0,0,1-.084-.044l-.064-.052L2.375,22.1a.324.324,0,0,1-.039-.073.275.275,0,0,1-.025-.078.593.593,0,0,1-.009-.086.428.428,0,0,1,.034-.164.443.443,0,0,1,.091-.143l.064-.053a.327.327,0,0,1,.078-.039.275.275,0,0,1,.078-.025.413.413,0,0,1,.25.025.241.241,0,0,1,.074.039c.025.017.048.035.069.053a.445.445,0,0,1,.091.143.428.428,0,0,1,.035.164.579.579,0,0,1-.011.09ZM4.761,30.8a.436.436,0,0,1-.611,0,.445.445,0,0,1-.125-.306.428.428,0,0,1,.035-.164.5.5,0,0,1,.091-.143.451.451,0,0,1,.611,0,.5.5,0,0,1,.091.143.428.428,0,0,1,.035.164.454.454,0,0,1-.139.305Zm17.887.875a.429.429,0,0,1,.484-.259.463.463,0,0,1,.156.064l.064.053a.515.515,0,0,1,.094.143.425.425,0,0,1,.03.164.462.462,0,0,1-.03.168.439.439,0,0,1-.094.138.338.338,0,0,1-.064.053.643.643,0,0,1-.074.044.576.576,0,0,1-.083.021.3.3,0,0,1-.086.009.418.418,0,0,1-.3-.125.375.375,0,0,1-.094-.138.45.45,0,0,1-.035-.168.429.429,0,0,1,.033-.168Zm-6.99-11.184a.431.431,0,1,1-.863,0,1.033,1.033,0,0,0-.863-.888v1.875a1.935,1.935,0,0,1,1.724,1.775,1.935,1.935,0,0,1-1.724,1.775v.293a.431.431,0,0,1-.863,0v-.293a1.935,1.935,0,0,1-1.724-1.775.431.431,0,0,1,.863,0,1.033,1.033,0,0,0,.863.888V22.264a1.935,1.935,0,0,1-1.724-1.775,1.935,1.935,0,0,1,1.724-1.774v-.293a.431.431,0,0,1,.863,0v.293a1.935,1.935,0,0,1,1.724,1.774ZM8.331,21.864a.431.431,0,0,1-.863.017V21.87a6,6,0,0,1,.474-2.349,6.093,6.093,0,0,1,3.216-3.21,6,6,0,0,1,2.341-.474.431.431,0,0,1,0,.863,5.181,5.181,0,0,0-2.013.405,5.25,5.25,0,0,0-2.75,2.75,5.183,5.183,0,0,0-.409,2.015Zm7.52,5.563A6.017,6.017,0,0,1,9.24,26.134a.431.431,0,0,1,.605-.611,5.15,5.15,0,0,0,5.668,1.113.43.43,0,0,1,.565.229.436.436,0,0,1-.226.561Zm3.685-5.563a6,6,0,0,1-.474,2.349.43.43,0,0,1-.4.263.451.451,0,0,1-.166-.03.43.43,0,0,1-.229-.565,5.15,5.15,0,0,0-1.113-5.668.434.434,0,0,1,0-.611.429.429,0,0,1,.605,0,6,6,0,0,1,1.771,4.25Z" transform="translate(1223.999 435.63)" fill="#d83a5f"/>
  </g>
</svg>
