<svg xmlns="http://www.w3.org/2000/svg" xmlns:xlink="http://www.w3.org/1999/xlink" width="91" height="91" viewBox="0 0 91 91">
  <defs>
    <filter id="Ellipse_1" x="0" y="0" width="91" height="91" filterUnits="userSpaceOnUse">
      <feOffset dy="3" input="SourceAlpha"/>
      <feGaussianBlur stdDeviation="3" result="blur"/>
      <feFlood flood-opacity="0.161"/>
      <feComposite operator="in" in2="blur"/>
      <feComposite in="SourceGraphic"/>
    </filter>
  </defs>
  <g id="Group_1" data-name="Group 1" transform="translate(-989 -412)">
    <g id="Group_2" data-name="Group 2" transform="translate(-391 -124)">
      <g id="Group_1-2" data-name="Group 1">
        <g transform="matrix(1, 0, 0, 1, 1380, 536)" filter="url(#Ellipse_1)">
          <circle id="Ellipse_1-2" data-name="Ellipse 1" cx="36.5" cy="36.5" r="36.5" transform="translate(9 6)" fill="#fff"/>
        </g>
      </g>
      <g id="Group_109" data-name="Group 109" transform="translate(799 318)">
        <g id="noun_activity_1498395" transform="translate(619 252)">
          <g id="Group_108" data-name="Group 108">
            <rect id="Rectangle_1" data-name="Rectangle 1" width="3.141" height="9.716" transform="translate(5.363 8.696)" fill="#d83a5f"/>
            <rect id="Rectangle_2" data-name="Rectangle 2" width="3.141" height="10.922" transform="translate(16.216 7.324)" fill="#d83a5f"/>
            <rect id="Rectangle_3" data-name="Rectangle 3" width="3.141" height="8.591" transform="translate(10.789 9.874)" fill="#d83a5f"/>
            <path id="Path_55" data-name="Path 55" d="M40.19,4.054c-1.963,1.571-3.989,3.2-6.016,4.774L26,4.9l1.243-2.55,7.063,3.335,4.25-3.4L37.181.719,43.459,0,41.625,5.559Z" transform="translate(-24.3)" fill="#d83a5f" fill-rule="evenodd"/>
            <rect id="Rectangle_4" data-name="Rectangle 4" width="20" height="2.396" transform="translate(0 17.851)" fill="#d83a5f"/>
            <rect id="Rectangle_5" data-name="Rectangle 5" width="3.141" height="11.446" transform="translate(0.393 7.193)" fill="#d83a5f"/>
          </g>
        </g>
      </g>
    </g>
  </g>
</svg>
