<svg xmlns="http://www.w3.org/2000/svg" width="128.007" height="128.146" viewBox="0 0 128.007 128.146">
  <g id="Group_1" data-name="Group 1" transform="translate(-831.999 -353.001)">
    <g id="noun_Follow_2284462" transform="translate(832 353.149)">
      <path id="Path_56" data-name="Path 56" d="M29.735,56.5a2.008,2.008,0,0,0,2.016-2,9.045,9.045,0,0,1,9.07-9H87.179a9.045,9.045,0,0,1,9.07,9,2.016,2.016,0,1,0,4.031,0,13.066,13.066,0,0,0-13.1-13H40.821a13.066,13.066,0,0,0-13.1,13,2.008,2.008,0,0,0,2.016,2Z" fill="#50687f"/>
      <path id="Path_57" data-name="Path 57" d="M64,38A19.074,19.074,0,1,0,44.851,19,19.074,19.074,0,0,0,64,38Z" fill="#50687f"/>
      <path id="Path_58" data-name="Path 58" d="M105.532,60H22.468a7.835,7.835,0,0,0-7.85,7.8v38.961a7.835,7.835,0,0,0,7.85,7.8H48.826l12.319,12.261a4.053,4.053,0,0,0,5.71,0l12.319-12.261h26.358a7.835,7.835,0,0,0,7.85-7.8V67.8a7.835,7.835,0,0,0-7.85-7.8ZM78.453,90.274a4.016,4.016,0,0,1-4.031,4H70.873v3.521a4.016,4.016,0,0,1-4.031,4H61.158a4.016,4.016,0,0,1-4.031-4V94.274H53.578a4.016,4.016,0,0,1-4.031-4V84.633a4.016,4.016,0,0,1,4.031-4h3.549V77.112a4.016,4.016,0,0,1,4.031-4h5.685a4.016,4.016,0,0,1,4.031,4v3.521h3.549a4.016,4.016,0,0,1,4.031,4Z" fill="#50687f"/>
      <path id="Path_59" data-name="Path 59" d="M19.369,29.179a4,4,0,0,0,6.249-4.36l-1.773-5.737,4.518-3.451A4,4,0,0,0,26,8.4H20.546L18.82,2.819a4,4,0,0,0-7.643,0L9.452,8.4H4a4,4,0,0,0-2.428,7.179l4.581,3.5L4.38,24.819a4,4,0,0,0,6.249,4.36L15,25.84Z" fill="#50687f"/>
      <path id="Path_60" data-name="Path 60" d="M124,8.4h-5.457L116.82,2.819a4,4,0,0,0-7.643,0L107.452,8.4H102a4,4,0,0,0-2.428,7.179l4.581,3.5-1.772,5.737a4,4,0,0,0,6.249,4.36L113,25.84l4.37,3.339a4,4,0,0,0,6.249-4.36l-1.773-5.737,4.518-3.451A4,4,0,0,0,124,8.4Z" fill="#50687f"/>
    </g>
  </g>
</svg>
