<svg xmlns="http://www.w3.org/2000/svg" viewBox="0 0 14.475 12.639">
  <defs>
    <style>
      .cls-1, .cls-2 {
        fill: #002341;
      }

      .cls-2 {
        stroke: #002341;
        stroke-width: 0.5px;
      }
    </style>
  </defs>
  <g id="Group_17" data-name="Group 17" transform="translate(-7808.777 -2054)">
    <path id="Path_434" data-name="Path 434" class="cls-1" d="M38.441,67.25a1.327,1.327,0,1,0,1.327,1.327A1.327,1.327,0,0,0,38.441,67.25Zm0,2.242a.915.915,0,1,1,.915-.915.915.915,0,0,1-.915.915Z" transform="translate(7772.901 1987.766)"/>
    <path id="Path_435" data-name="Path 435" class="cls-1" d="M78.318,30.135a.206.206,0,0,0-.206.206v.414a.206.206,0,0,0,.412,0v-.414A.206.206,0,0,0,78.318,30.135Z" transform="translate(7733.024 2023.865)"/>
    <path id="Path_436" data-name="Path 436" class="cls-1" d="M123.285,53.073a.206.206,0,0,0-.291,0l-.293.293a.206.206,0,0,0,.291.291l.293-.293a.206.206,0,0,0,0-.291Z" transform="translate(7689.712 2001.613)"/>
    <path id="Path_437" data-name="Path 437" class="cls-1" d="M141.707,108.247h-.414a.206.206,0,0,0,0,.412h.414a.206.206,0,0,0,0-.412Z" transform="translate(7671.771 1947.89)"/>
    <path id="Path_438" data-name="Path 438" class="cls-1" d="M123.285,153.13l-.293-.293a.206.206,0,0,0-.291.291l.293.293a.206.206,0,0,0,.291-.291Z" transform="translate(7689.712 1904.576)"/>
    <path id="Path_439" data-name="Path 439" class="cls-1" d="M78.318,171.222a.206.206,0,0,0-.206.206v.414a.206.206,0,1,0,.412,0v-.414a.206.206,0,0,0-.206-.206Z" transform="translate(7733.024 1886.637)"/>
    <path id="Path_440" data-name="Path 440" class="cls-1" d="M23.522,152.837a.206.206,0,0,0-.291,0l-.293.293a.206.206,0,0,0,.291.291l.293-.293a.206.206,0,0,0,0-.291Z" transform="translate(7786.748 1904.576)"/>
    <path id="Path_441" data-name="Path 441" class="cls-1" d="M.62,108.247H.206a.206.206,0,1,0,0,.412H.62a.206.206,0,0,0,0-.412Z" transform="translate(7809 1947.89)"/>
    <path id="Path_442" data-name="Path 442" class="cls-1" d="M23.522,53.366l-.293-.293a.206.206,0,0,0-.291.291l.293.293a.206.206,0,0,0,.291-.291Z" transform="translate(7786.748 2001.613)"/>
    <path id="Path_443" data-name="Path 443" class="cls-2" d="M15.624,92.18a1.922,1.922,0,0,0-1.185-.331,4.166,4.166,0,0,0-2.079-1.3,10.287,10.287,0,0,0-2.019-.44l1.474-3.7a2.6,2.6,0,0,1,.575.567.211.211,0,0,0,.223.09,2.815,2.815,0,0,1,2.7,1.081.206.206,0,0,0,.37-.092,7.082,7.082,0,0,0-.239-2.761.206.206,0,1,0-.394.119,6.761,6.761,0,0,1,.26,2.106,3.274,3.274,0,0,0-2.438-.9l.01-.032a7.688,7.688,0,0,0,.34-1.511,5.922,5.922,0,0,0,0-1.415,4.457,4.457,0,0,0-.176-.8v-.006a3.985,3.985,0,0,1,1.691,1.758.206.206,0,1,0,.368-.184,4.416,4.416,0,0,0-2.382-2.178,4.623,4.623,0,0,0-4.43.558,7.11,7.11,0,0,0-1.714,1.618.206.206,0,0,0,.206.321,2.816,2.816,0,0,1,2.7,1.062.214.214,0,0,0,.237.1,2.605,2.605,0,0,1,.8-.015L8.867,90.016H8.743a12.465,12.465,0,0,0-2.694.281.206.206,0,0,0,.089.4,12.224,12.224,0,0,1,2.6-.271,12.848,12.848,0,0,1,1.286.063h0a10.107,10.107,0,0,1,2.2.45,4.24,4.24,0,0,1,1.745.993,1.944,1.944,0,0,0-.515.248,1.509,1.509,0,0,1-1.7,0,1.918,1.918,0,0,0-2.164,0,1.509,1.509,0,0,1-1.7,0,1.918,1.918,0,0,0-2.164,0,1.509,1.509,0,0,1-1.7,0,1.942,1.942,0,0,0-.515-.248,4.237,4.237,0,0,1,1.742-.991.206.206,0,0,0-.131-.39,4.163,4.163,0,0,0-2.076,1.3,1.922,1.922,0,0,0-1.185.331.206.206,0,0,0,.231.341A1.511,1.511,0,0,1,3.1,92.269a.2.2,0,0,0,.038,0,1.518,1.518,0,0,1,.652.249,1.918,1.918,0,0,0,2.164,0,1.509,1.509,0,0,1,1.7,0,1.918,1.918,0,0,0,2.164,0,1.509,1.509,0,0,1,1.7,0,1.918,1.918,0,0,0,2.164,0,1.518,1.518,0,0,1,.65-.249.2.2,0,0,0,.04,0,1.511,1.511,0,0,1,1.011.254.206.206,0,1,0,.231-.341ZM9.99,85.46l.01-.014a7.4,7.4,0,0,1,.676-1.15.206.206,0,1,0-.333-.241,7.668,7.668,0,0,0-.562.911c-.06.114-.122.23-.173.348v.006a3.274,3.274,0,0,0-2.389-1.025,6.932,6.932,0,0,1,1.313-1.15,4.819,4.819,0,0,1,1.787-.751,3.949,3.949,0,0,1,1.757.075h-.007a4.545,4.545,0,0,0-.875.631c-.1.1-.205.192-.3.294a.207.207,0,1,0,.3.284,4.684,4.684,0,0,1,.887-.734,3.253,3.253,0,0,1,.47-.248,3.183,3.183,0,0,1,.151.43,5.507,5.507,0,0,1-.036,2.751q-.07.288-.162.57v.006a3.171,3.171,0,0,0-1.013-.712l-.016-.007A3.22,3.22,0,0,0,9.99,85.46Zm-.075,4.605-.288-.022c-.107-.007-.214-.013-.321-.017l1.614-4.049a2.891,2.891,0,0,1,.288.1l.251.115Z" transform="translate(7807.275 1973.497)"/>
  </g>
</svg>
