<svg xmlns="http://www.w3.org/2000/svg" viewBox="0 0 15.851 17.994">
  <defs>
    <style>
      .cls-1 {
        fill: #cd234b;
      }
    </style>
  </defs>
  <path id="Path_395" data-name="Path 395" class="cls-1" d="M36.885,3.105a1.944,1.944,0,1,1,3.693-1.218L44.4,13.466a2.553,2.553,0,0,0-1.113-.042l-3.7-11.21a.9.9,0,1,0-1.711.564.522.522,0,1,1-.991.327Zm15.053,9.084-6.26,2.065a2.557,2.557,0,0,1,.51.891.122.122,0,0,0,.01.036l6.067-2a.522.522,0,1,0-.327-.991Zm-6.245,3.12a2.049,2.049,0,1,1-1.025-1.193,2.049,2.049,0,0,1,1.025,1.193Zm-.973.321a1.025,1.025,0,1,0-.652,1.294,1.025,1.025,0,0,0,.652-1.294Zm5.636-11.3,2.125,6.441a.261.261,0,0,1-.166.329l-6.689,2.207a.261.261,0,0,1-.329-.166L43.171,6.7a.261.261,0,0,1,.166-.329l6.689-2.207a.261.261,0,0,1,.33.17Zm-.885,3.742L47.193,6.823,46.109,9.185l.718.33L47.3,8.494l.846,2.566.81-.267L48.11,8.228l.985.542ZM47.483,4.233,46.125.115a.167.167,0,0,0-.211-.106L44.749.393,44.743.4h-.009l-.615.2.506,1.534-.693.229L43.426.83l-.615.2v.01H42.8l-1.157.382a.167.167,0,0,0-.106.211L42.89,5.749a.167.167,0,0,0,.211.106l4.276-1.411A.167.167,0,0,0,47.483,4.233Z" transform="translate(-36.787 0)"/>
</svg>
