<svg xmlns="http://www.w3.org/2000/svg" width="13.936" height="14.502" viewBox="0 0 13.936 14.502">
  <g id="Group_16" data-name="Group 16" transform="translate(-7809.418 -2363.998)">
    <path id="Path_419" data-name="Path 419" d="M158.942,203.49l-1.5-1.056a.411.411,0,0,0-.647.335v.646H149.6a.41.41,0,0,0,0,.82h7.2v.646a.411.411,0,0,0,.647.335l1.5-1.056a.411.411,0,0,0-.005-.67Z" transform="translate(7612.562 2523.115) rotate(-90)" fill="#50687f"/>
    <path id="Path_420" data-name="Path 420" d="M11.771,31.418a.41.41,0,0,0-.56.15,5.567,5.567,0,1,1,0-5.567.41.41,0,1,0,.71-.411,6.388,6.388,0,1,0,0,6.388.41.41,0,0,0-.15-.56Z" transform="translate(7787.602 2378) rotate(-90)" fill="#50687f" stroke="#50687f" stroke-width="1"/>
  </g>
</svg>
