<svg id="communication" xmlns="http://www.w3.org/2000/svg" viewBox="0 0 20 20.001">
  <defs>
    <style>
      .cls-1 {
        fill: #002341;
      }
    </style>
  </defs>
  <g id="Group_1745" data-name="Group 1745" transform="translate(1.758 11.211)">
    <g id="Group_1744" data-name="Group 1744">
      <path id="Path_409" data-name="Path 409" class="cls-1" d="M46.758,287a1.758,1.758,0,1,0,1.758,1.758A1.758,1.758,0,0,0,46.758,287Z" transform="translate(-45 -287)"/>
    </g>
  </g>
  <g id="Group_1747" data-name="Group 1747" transform="translate(0 14.727)">
    <g id="Group_1746" data-name="Group 1746">
      <path id="Path_410" data-name="Path 410" class="cls-1" d="M4.688,377H2.344A2.346,2.346,0,0,0,0,379.344v2.344a.586.586,0,0,0,.586.586H6.445a.586.586,0,0,0,.586-.586v-2.344A2.346,2.346,0,0,0,4.688,377Z" transform="translate(0 -377)"/>
    </g>
  </g>
  <g id="Group_1749" data-name="Group 1749" transform="translate(14.727 11.211)">
    <g id="Group_1748" data-name="Group 1748">
      <path id="Path_411" data-name="Path 411" class="cls-1" d="M378.758,287a1.758,1.758,0,1,0,1.758,1.758A1.758,1.758,0,0,0,378.758,287Z" transform="translate(-377 -287)"/>
    </g>
  </g>
  <g id="Group_1751" data-name="Group 1751" transform="translate(12.969 14.727)">
    <g id="Group_1750" data-name="Group 1750">
      <path id="Path_412" data-name="Path 412" class="cls-1" d="M336.688,377h-2.344A2.346,2.346,0,0,0,332,379.344v2.344a.586.586,0,0,0,.586.586h5.859a.586.586,0,0,0,.586-.586v-2.344A2.346,2.346,0,0,0,336.688,377Z" transform="translate(-332 -377)"/>
    </g>
  </g>
  <g id="Group_1753" data-name="Group 1753" transform="translate(2.383)">
    <g id="Group_1752" data-name="Group 1752">
      <path id="Path_413" data-name="Path 413" class="cls-1" d="M68.617,0H63.93A2.93,2.93,0,0,0,61,2.93V6.445a2.935,2.935,0,0,0,2.344,2.871v1.817a.586.586,0,0,0,1,.414l2.172-2.172h2.1a2.93,2.93,0,0,0,2.93-2.93V2.93A2.93,2.93,0,0,0,68.617,0Zm-.172,3.344L66.1,5.688a.586.586,0,0,1-.829,0L64.1,4.516a.586.586,0,0,1,.829-.829l.758.758,1.93-1.929a.586.586,0,1,1,.829.829Z" transform="translate(-61)"/>
    </g>
  </g>
  <g id="Group_1755" data-name="Group 1755" transform="translate(12.445 1.172)">
    <g id="Group_1754" data-name="Group 1754">
      <path id="Path_414" data-name="Path 414" class="cls-1" d="M320.832,30h-1a4.053,4.053,0,0,1,.411,1.758v3.516a4.086,4.086,0,0,1-1.657,3.273l1.828,1.828a.586.586,0,0,0,1-.414V38.144a2.935,2.935,0,0,0,2.344-2.871V32.93A2.93,2.93,0,0,0,320.832,30Z" transform="translate(-318.589 -30)"/>
    </g>
  </g>
</svg>
