<svg xmlns="http://www.w3.org/2000/svg" viewBox="0 0 14.438 20">
  <defs>
    <style>
      .cls-1 {
        fill: #002341;
      }
    </style>
  </defs>
  <g id="home-address" transform="translate(-0.145)">
    <path id="Path_406" data-name="Path 406" class="cls-1" d="M80.408,69.252v3.97h1.444V70.7a.361.361,0,0,1,.361-.361h2.166a.361.361,0,0,1,.361.361v2.527h1.444v-3.97a.361.361,0,0,1,.361-.361h.383L83.3,66.1l-3.631,2.793h.383A.361.361,0,0,1,80.408,69.252Zm0,0" transform="translate(-75.931 -63.116)"/>
    <path id="Path_407" data-name="Path 407" class="cls-1" d="M144.145,176h1.444v2.166h-1.444Zm0,0" transform="translate(-137.503 -168.059)"/>
    <path id="Path_408" data-name="Path 408" class="cls-1" d="M7.364,20c1.358-1.7,7.219-9.219,7.219-12.781a7.219,7.219,0,1,0-14.438,0C.145,10.782,6.006,18.3,7.364,20ZM2.451,5.851,7.144,2.242a.361.361,0,0,1,.44,0l4.692,3.609a.361.361,0,0,1-.22.646H10.973v3.97a.361.361,0,0,1-.361.361h-6.5a.361.361,0,0,1-.361-.361V6.5H2.672a.361.361,0,0,1-.22-.647Zm0,0"/>
  </g>
</svg>
