<svg xmlns="http://www.w3.org/2000/svg" width="502.189" height="428.205" viewBox="0 0 502.189 428.205">
  <g id="Group_11" data-name="Group 11" transform="translate(-465.933 -165)">
    <g id="noun_Announcement_552563" transform="translate(461 126.604)">
      <g id="Group_10" data-name="Group 10">
        <g id="Group_6" data-name="Group 6">
          <path id="Path_100" data-name="Path 100" d="M240.8,124.8c40,67.9,63.2,139.7,70.3,217.1a2.423,2.423,0,0,1-2.9,2.6h0a484.044,484.044,0,0,0-164.5-8.9c-15.3,1.8-30.4,4.7-45.6,7.3-2.6.5-3.7-.4-5-2.5A188.494,188.494,0,0,1,65,256.5c-.2-2.7.9-3.6,3-4.6,60.1-27.2,112.3-65.3,157.3-113.3,4-4.3,7.5-9,11.4-14.1a2.533,2.533,0,0,1,4.1.3Z" fill="#50687f"/>
          <path id="Path_101" data-name="Path 101" d="M178.1,463.1c-9.9-4.4-15.6-14-21-23.2A150.885,150.885,0,0,1,140.3,397c-2.9-12.8-10.4-21.9-20.2-29.7a71.421,71.421,0,0,1-6.2-5c-3.5-3.3-3.2-6.2,1.2-7.9a148.259,148.259,0,0,1,19.6-6.1c22.9-5,46.1-7,69.5-4.8,3.5.3,5.2,1.8,5,5-.3,6-.3,12.1-1.5,18-2.4,11.5-5,48.9,8.9,70,5.1,7.8,11.7,11.1,15.5,14.5a6.085,6.085,0,0,1-1.4,10.1C214.8,469,187.4,467.2,178.1,463.1Z" fill="#50687f"/>
          <path id="Path_102" data-name="Path 102" d="M52.4,261.4a198.006,198.006,0,0,0,27.8,83,1.79,1.79,0,0,1-1.1,2.6c-11.2,2.4-21.2,8.1-32.8,7.2C29.9,352.9,18,345,11.7,330c-4.1-9.6-8-19.6-6.4-30.6,2.4-16,11.3-26.9,26.2-32.8,6-2.4,12.1-4.4,18.6-6.6a1.71,1.71,0,0,1,2.3,1.4Z" fill="#50687f"/>
          <path id="Path_103" data-name="Path 103" d="M336.5,345.5c.3,3.3-.9,5.8-3.9,7-3.6,1.5-7.4,3.6-11.1.3A6.165,6.165,0,0,1,320,349a579.589,579.589,0,0,0-76.3-235.1c-2.8-4.8,0-7,9.1-9.3a4.3,4.3,0,0,1,4.8,2.1c22.8,41.2,42.7,83.6,56.5,128.7,8.4,27.5,20.4,94.6,21.2,100C335.5,335.3,336.2,342.1,336.5,345.5Z" fill="#50687f"/>
        </g>
        <g id="Group_7" data-name="Group 7">
          <path id="Path_104" data-name="Path 104" d="M418.1,300.8l-15.3-8a133.9,133.9,0,0,0-57.2-180.6l8-15.4a5.771,5.771,0,0,1,8.1-2.4c71.2,40.5,99.4,129.5,64.5,203.7A6.04,6.04,0,0,1,418.1,300.8Z" fill="#50687f"/>
        </g>
        <g id="Group_8" data-name="Group 8">
          <path id="Path_105" data-name="Path 105" d="M482.1,318.7l-10.4-6.1c-4-2.3-5.8-8-4.1-12.9a216.1,216.1,0,0,0,2.6-130.3c-12.6-42.9-37.5-78-70.3-99.8-3.9-2.6-5.5-8.3-3.6-13.1L401.2,44c2-5.1,7.2-7.1,11.4-4.4,39.3,25.8,69,67.7,84,118.8,15.1,51.1,13.9,105.9-3.3,155.3C491.5,318.9,486.4,321.2,482.1,318.7Z" fill="#50687f"/>
        </g>
        <g id="Group_9" data-name="Group 9">
          <path id="Path_106" data-name="Path 106" d="M359.7,278.2l-9.3-4.8a6.555,6.555,0,0,1-3-8.3,79.489,79.489,0,0,0-31.2-98.6,6.557,6.557,0,0,1-2.4-8.5l4.8-9.3a6.422,6.422,0,0,1,9.1-2.5A102.882,102.882,0,0,1,368.5,275a6.247,6.247,0,0,1-8.8,3.2Z" fill="#50687f"/>
        </g>
      </g>
    </g>
  </g>
</svg>
