<svg xmlns="http://www.w3.org/2000/svg" viewBox="0 0 18.606 18.006">
  <defs>
    <style>
      .cls-1 {
        fill: #cd234b;
      }
    </style>
  </defs>
  <path id="Path_117" data-name="Path 117" class="cls-1" d="M17.04,18.994l.041-.008h0a1.283,1.283,0,1,0,0-.635h0l-.041-.008H15.427a5.1,5.1,0,0,0-1.421-3.227l3.272-3.272a.319.319,0,0,0,.066-.1h0a1.284,1.284,0,1,0-.427-.417h0a.316.316,0,0,0-.094.063l-3.288,3.3h0a5.115,5.115,0,0,0-6.788.292h0L4.7,12.939a.3.3,0,0,0-.033-.022h0a1.284,1.284,0,1,0-.449.449h0a.3.3,0,0,0,.022.033L6.3,15.462h0a5.1,5.1,0,0,0-1.129,2.9H3.568l-.041.008h0a1.283,1.283,0,1,0,0,.635h0l.041.008H5.181a5.086,5.086,0,0,0,1.141,2.911L4.25,23.953a.3.3,0,0,0-.023.035h0a1.284,1.284,0,1,0,.449.449h0L4.7,24.41l2.056-2.031h0a5.123,5.123,0,0,0,6.767.289l2.746,2.746a.3.3,0,0,0,.036.024h0a1.278,1.278,0,1,0,.446-.449h0a.308.308,0,0,0-.023-.034L14,22.233a5.111,5.111,0,0,0,1.43-3.239Zm1.055-.549.048-.038a.243.243,0,0,1,.058-.029.2.2,0,0,1,.058-.019.274.274,0,0,1,.125,0,.193.193,0,0,1,.061.019.244.244,0,0,1,.058.029l.048.038.039.048a.242.242,0,0,1,.029.058.2.2,0,0,1,.019.058.323.323,0,0,1,0,.128.2.2,0,0,1-.019.058.242.242,0,0,1-.029.058l-.039.048-.048.038a.243.243,0,0,1-.058.029.193.193,0,0,1-.061.019.394.394,0,0,1-.061.006.433.433,0,0,1-.064-.006.2.2,0,0,1-.058-.019.243.243,0,0,1-.058-.029L18.1,18.9a.5.5,0,0,1-.039-.048.242.242,0,0,1-.029-.058.2.2,0,0,1-.019-.058A.488.488,0,0,1,18,18.673a.337.337,0,0,1,.1-.227Zm-.388-7.913a.33.33,0,0,1,.067-.106.336.336,0,0,1,.455,0,.369.369,0,0,1,.067.106.3.3,0,0,1,0,.244.369.369,0,0,1-.067.106.331.331,0,0,1-.228.093.337.337,0,0,1-.228-.093.369.369,0,0,1-.067-.106A.3.3,0,0,1,17.707,10.532ZM3.863,12.38a.3.3,0,0,1-.067.106.325.325,0,0,1-.455,0,.333.333,0,0,1,0-.456.32.32,0,0,1,.523.35ZM2.6,18.738a.2.2,0,0,1-.019.058.242.242,0,0,1-.029.058l-.039.048a.52.52,0,0,1-.051.038.178.178,0,0,1-.055.029A.32.32,0,0,1,2.285,19a.475.475,0,0,1-.064-.006.2.2,0,0,1-.058-.019.243.243,0,0,1-.058-.029L2.057,18.9l-.039-.048A.242.242,0,0,1,1.99,18.8a.2.2,0,0,1-.019-.058.441.441,0,0,1-.006-.064.319.319,0,0,1,.026-.122.33.33,0,0,1,.067-.106l.048-.038a.244.244,0,0,1,.058-.029.2.2,0,0,1,.058-.019.307.307,0,0,1,.186.019.18.18,0,0,1,.055.029c.019.013.035.026.051.038a.331.331,0,0,1,.067.106.319.319,0,0,1,.026.122A.431.431,0,0,1,2.6,18.738Zm1.2,6.579a.325.325,0,0,1-.455,0,.331.331,0,0,1-.093-.228.319.319,0,0,1,.026-.122.369.369,0,0,1,.067-.106.336.336,0,0,1,.455,0,.369.369,0,0,1,.067.106.318.318,0,0,1,.026.122.337.337,0,0,1-.093.228Zm13.312.654a.32.32,0,0,1,.359-.192.453.453,0,0,1,.061.019.446.446,0,0,1,.055.029l.048.038a.383.383,0,0,1,.071.106.316.316,0,0,1,.022.122.345.345,0,0,1-.022.125.326.326,0,0,1-.071.1.252.252,0,0,1-.048.038.479.479,0,0,1-.055.032.43.43,0,0,1-.061.016.219.219,0,0,1-.064.006.31.31,0,0,1-.225-.093.281.281,0,0,1-.071-.1.335.335,0,0,1-.026-.125.32.32,0,0,1,.023-.121Zm-5.2-8.324a.321.321,0,0,1-.642,0,.769.769,0,0,0-.642-.661v1.392a1.436,1.436,0,0,1,1.28,1.322,1.436,1.436,0,0,1-1.283,1.322v.218a.321.321,0,1,1-.642,0v-.218A1.436,1.436,0,0,1,8.7,19.7a.321.321,0,1,1,.642,0,.769.769,0,0,0,.642.661V18.969A1.436,1.436,0,0,1,8.7,17.647a1.436,1.436,0,0,1,1.283-1.322v-.218a.321.321,0,1,1,.642,0v.218a1.436,1.436,0,0,1,1.283,1.322ZM6.455,18.673a.321.321,0,1,1-.642.013v-.013a4.469,4.469,0,0,1,.353-1.748,4.535,4.535,0,0,1,2.39-2.39,4.468,4.468,0,0,1,1.748-.353.321.321,0,0,1,0,.642,3.857,3.857,0,0,0-1.5.3,3.9,3.9,0,0,0-2.05,2.05,3.858,3.858,0,0,0-.3,1.5Zm5.6,4.138a4.478,4.478,0,0,1-4.921-.962.321.321,0,0,1,.452-.455,3.833,3.833,0,0,0,4.218.828.32.32,0,0,1,.42.17.325.325,0,0,1-.172.419ZM14.8,18.673a4.469,4.469,0,0,1-.353,1.748.32.32,0,0,1-.3.2.336.336,0,0,1-.125-.026.32.32,0,0,1-.17-.42,3.833,3.833,0,0,0-.828-4.218.323.323,0,0,1,0-.455.319.319,0,0,1,.452,0,4.462,4.462,0,0,1,1.318,3.163Z" transform="translate(-1.001 -9.358)"/>
</svg>
