<svg xmlns="http://www.w3.org/2000/svg" viewBox="0 0 14.416 14.002">
  <g id="Group_106" data-name="Group 106" transform="translate(-4471.03 -712)">
    <path id="Path_356" data-name="Path 356" d="M17.685,37.618a1.03,1.03,0,1,1-1.03-1.03,1.03,1.03,0,0,1,1.03,1.03m1.759,1.591V30.972a1.008,1.008,0,0,0-1.03-1.03H16.655v3.269a1.008,1.008,0,0,1-1.029,1.03H8.849a1.008,1.008,0,0,1-1.03-1.03V29.942H6.06a1.008,1.008,0,0,0-1.03,1.03v8.237a1.008,1.008,0,0,0,1.03,1.03H18.415a1.008,1.008,0,0,0,1.03-1.03" transform="translate(4466 685.762)"/>
    <path id="Path_357" data-name="Path 357" d="M35.437,12.662V7.844a1.008,1.008,0,0,0-1.029-1.03H29.59a1.008,1.008,0,0,0-1.03,1.03v4.818a1.008,1.008,0,0,0,1.03,1.03h4.818a1.008,1.008,0,0,0,1.029-1.03" transform="translate(4446.238 705.186)"/>
  </g>
</svg>
