<svg xmlns="http://www.w3.org/2000/svg" xmlns:xlink="http://www.w3.org/1999/xlink" width="91" height="91" viewBox="0 0 91 91">
  <defs>
    <filter id="Ellipse_1" x="0" y="0" width="91" height="91" filterUnits="userSpaceOnUse">
      <feOffset dy="3" input="SourceAlpha"/>
      <feGaussianBlur stdDeviation="3" result="blur"/>
      <feFlood flood-opacity="0.161"/>
      <feComposite operator="in" in2="blur"/>
      <feComposite in="SourceGraphic"/>
    </filter>
  </defs>
  <g id="Group_1" data-name="Group 1" transform="translate(-1203 -431)">
    <g transform="matrix(1, 0, 0, 1, 1203, 431)" filter="url(#Ellipse_1)">
      <circle id="Ellipse_1-2" data-name="Ellipse 1" cx="36.5" cy="36.5" r="36.5" transform="translate(9 6)" fill="#fff"/>
    </g>
    <path id="leads_icon" d="M10,11.082H6.251V7.434H3.75v3.648H0V13.52H3.75v3.648h2.5V13.513H10ZM22.5,12.3a3.75,3.75,0,0,0,3.42-2.16,3.571,3.571,0,0,0-.625-3.919A3.818,3.818,0,0,0,21.36,5.171a5.89,5.89,0,0,1,1.126,3.48,6,6,0,0,1-1.124,3.48A3.84,3.84,0,0,0,22.5,12.3Zm-6.251,0A3.709,3.709,0,0,0,19.9,9.364,3.613,3.613,0,0,0,17.65,5.312a3.792,3.792,0,0,0-4.529,1.35,3.559,3.559,0,0,0,.467,4.584,3.787,3.787,0,0,0,2.657,1.063Zm8.28,2.627a4.457,4.457,0,0,1,1.726,3.45v2.436H30V18.378c0-1.872-2.96-3.026-5.473-3.45Zm-8.274-.2c-2.5,0-7.5,1.217-7.5,3.648V20.81h15V18.378c0-2.428-5-3.648-7.5-3.648Z" transform="translate(1234 461.002)" fill="#d83a5f"/>
  </g>
</svg>
