<svg xmlns="http://www.w3.org/2000/svg" viewBox="0 0 21.2 30.009">
  <defs>
    <style>
      .cls-1 {
        fill: #fffefe;
      }
    </style>
  </defs>
  <g id="Group_1211" data-name="Group 1211" transform="translate(-2171 -2919)">
    <path id="Path_90" data-name="Path 90" class="cls-1" d="M-218.4,384.208a10.607,10.607,0,0,0,10.6-10.6,10.578,10.578,0,0,0-3.1-7.507,10.578,10.578,0,0,0-7.5-3.1,10.578,10.578,0,0,0-7.5,3.1,10.578,10.578,0,0,0-3.1,7.5,10.607,10.607,0,0,0,10.6,10.608Zm-5.523-3.535c2.342-.839,3.314-1.811,3.756-2.518a4.681,4.681,0,0,0,1.635.309h.177a4.13,4.13,0,0,0,1.723-.353c.4.751,1.414,1.723,3.8,2.563a8.985,8.985,0,0,1-5.523,1.9,8.427,8.427,0,0,1-5.564-1.9Zm7.511-4.639a2.484,2.484,0,0,1-2.032.839h-.044a2.484,2.484,0,0,1-2.032-.839c-1.281-1.458-1.016-4.286-1.016-4.33v-.044c.133-2.96,2.3-3.225,2.96-3.225h.133c.486,0,2.916.044,3.049,3.181v.044c.094.84.046,3.14-1.014,4.374Zm-1.988-11.4a9.023,9.023,0,0,1,9.013,9.013,9.12,9.12,0,0,1-2.165,5.832c-3.093-.928-3.667-1.988-3.756-2.253l.088-.088c1.723-1.9,1.458-5.169,1.414-5.523-.177-3.8-3-4.772-4.639-4.683-1.679-.044-4.462.884-4.639,4.683-.044.353-.309,3.579,1.414,5.523.088.088.133.177.221.221-.177.353-.928,1.281-3.711,2.121a9.12,9.12,0,0,1-2.165-5.832,8.892,8.892,0,0,1,2.573-6.378,8.892,8.892,0,0,1,6.352-2.635Z" transform="translate(2400 2556)"/>
    <path id="Path_91" data-name="Path 91" class="cls-1" d="M-207.95,417.8H-223.1a.792.792,0,0,0-.568.232.792.792,0,0,0-.232.568.792.792,0,0,0,.232.568.792.792,0,0,0,.568.232h15.155a.792.792,0,0,0,.568-.232.792.792,0,0,0,.232-.568.792.792,0,0,0-.234-.57.792.792,0,0,0-.571-.23Z" transform="translate(2397.153 2525.412)"/>
    <path id="Path_92" data-name="Path 92" class="cls-1" d="M-207.352,427.3H-217.2a.792.792,0,0,0-.568.232.792.792,0,0,0-.232.568.792.792,0,0,0,.232.568.792.792,0,0,0,.568.232h9.853a.792.792,0,0,0,.568-.232.792.792,0,0,0,.232-.568.792.792,0,0,0-.234-.57.792.792,0,0,0-.571-.23Z" transform="translate(2393.86 2520.109)"/>
  </g>
</svg>
