<svg xmlns="http://www.w3.org/2000/svg" width="46.44" height="46.437" viewBox="0 0 46.44 46.437">
  <g id="Group_1" data-name="Group 1" transform="translate(-834.773 -401)">
    <g id="noun_offer_2191454" transform="translate(825.5 391.716)">
      <path id="Path_68" data-name="Path 68" d="M36.54,32.858a3.682,3.682,0,0,0-2.6,6.285,3.767,3.767,0,0,0,5.2,0,3.681,3.681,0,0,0-2.6-6.285Z" fill="#50687f"/>
      <path id="Path_69" data-name="Path 69" d="M31.063,31.063a3.68,3.68,0,1,0-5.206,0,3.77,3.77,0,0,0,5.206,0Z" fill="#50687f"/>
      <path id="Path_70" data-name="Path 70" d="M32.5,14.563A17.938,17.938,0,1,0,50.438,32.5,17.938,17.938,0,0,0,32.5,14.563ZM25.151,25.151a4.679,4.679,0,1,1-1.371,3.308,4.679,4.679,0,0,1,1.371-3.308Zm14.7,14.7a4.654,4.654,0,1,1,1.383-3.311,4.681,4.681,0,0,1-1.383,3.311Zm1.224-15.216L24.634,41.073a.5.5,0,1,1-.708-.707l16.439-16.44a.5.5,0,0,1,.708.707Z" fill="#50687f"/>
      <path id="Path_71" data-name="Path 71" d="M54.426,31.168c-.784-.584-1.525-1.136-1.644-1.884a3.623,3.623,0,0,1,1-2.347c.406-.573.911-1.285.805-1.614s-.952-.627-1.628-.854c-.892-.3-1.813-.611-2.16-1.292a3.6,3.6,0,0,1,.222-2.527c.21-.674.471-1.514.264-1.8s-1.092-.3-1.8-.305a3.591,3.591,0,0,1-2.465-.565,3.589,3.589,0,0,1-.565-2.465c-.008-.709-.018-1.591-.305-1.8-.245-.178-1.063.034-1.8.264a3.81,3.81,0,0,1-2.528.221c-.68-.347-.99-1.268-1.29-2.159-.228-.675-.512-1.517-.855-1.628a3.765,3.765,0,0,0-1.613.8,3.748,3.748,0,0,1-2.348,1c-.748-.118-1.3-.859-1.885-1.644C33.4,10,32.87,9.284,32.5,9.284s-.9.716-1.332,1.292c-.584.785-1.136,1.525-1.884,1.644a3.689,3.689,0,0,1-2.347-1,3.848,3.848,0,0,0-1.521-.818c-.437.125-.72.965-.947,1.641-.3.891-.611,1.813-1.292,2.16a3.8,3.8,0,0,1-2.528-.221c-.736-.229-1.553-.438-1.8-.264-.287.209-.3,1.091-.305,1.8a3.593,3.593,0,0,1-.565,2.465,3.589,3.589,0,0,1-2.465.565c-.709.008-1.591.018-1.8.3s.054,1.124.264,1.8a3.608,3.608,0,0,1,.221,2.528c-.347.68-1.269.991-2.16,1.292-.675.228-1.516.511-1.627.854s.4,1.042.805,1.615a3.625,3.625,0,0,1,1,2.348c-.118.748-.859,1.3-1.644,1.884-.578.425-1.3.958-1.3,1.328s.716.9,1.292,1.331c.785.585,1.525,1.137,1.644,1.884a3.624,3.624,0,0,1-1,2.349c-.406.572-.912,1.284-.805,1.613.111.344.952.627,1.627.854.891.3,1.813.611,2.16,1.291a3.6,3.6,0,0,1-.221,2.528c-.21.675-.471,1.514-.264,1.8s1.091.3,1.8.305a3.593,3.593,0,0,1,2.465.565,3.589,3.589,0,0,1,.565,2.465c.008.709.018,1.591.3,1.8.243.176,1.063-.035,1.8-.263a3.816,3.816,0,0,1,2.528-.221c.68.347.991,1.269,1.292,2.16.228.676.511,1.516.854,1.627a3.289,3.289,0,0,0,1.615-.806,4.206,4.206,0,0,1,2.134-1.016,1.374,1.374,0,0,1,.214.017c.748.118,1.3.859,1.884,1.644.429.575.962,1.292,1.332,1.292s.9-.716,1.331-1.292c.584-.784,1.137-1.525,1.884-1.644a3.7,3.7,0,0,1,2.349,1,3.831,3.831,0,0,0,1.521.817c.437-.124.72-.965.947-1.641.3-.892.611-1.813,1.291-2.16a3.8,3.8,0,0,1,2.527.222c.736.229,1.555.441,1.8.264.287-.209.3-1.092.305-1.8a3.591,3.591,0,0,1,.565-2.465,3.589,3.589,0,0,1,2.465-.565c.709-.008,1.591-.018,1.8-.305s-.054-1.124-.263-1.8a3.608,3.608,0,0,1-.221-2.528c.347-.68,1.269-.99,2.159-1.29.676-.228,1.517-.512,1.628-.855s-.4-1.041-.805-1.613a3.625,3.625,0,0,1-1-2.348c.118-.748.859-1.3,1.644-1.885.575-.428,1.292-.961,1.292-1.331S55,31.6,54.426,31.168ZM32.5,51.438A18.938,18.938,0,1,1,51.438,32.5,18.938,18.938,0,0,1,32.5,51.438Z" fill="#50687f"/>
    </g>
  </g>
</svg>
