<svg xmlns="http://www.w3.org/2000/svg" width="49.254" height="56.71" viewBox="0 0 49.254 56.71">
  <g id="noun_Target_2652004" transform="translate(-6.986 -3.26)">
    <g id="Group_1" data-name="Group 1">
      <path id="Path_2" data-name="Path 2" d="M30.54,27a1.7,1.7,0,0,1,.51.08l4.39-4.39A8,8,0,1,0,38.54,29a7.9,7.9,0,0,0-1.69-4.89l-4.38,4.38a2.24,2.24,0,0,1,.07.51,2,2,0,1,1-2-2Z" fill="#50687f"/>
      <path id="Path_3" data-name="Path 3" d="M46.72,19.86l9.52-9.53-5.19-.47-9.49,9.49Z" fill="#50687f"/>
      <path id="Path_4" data-name="Path 4" d="M40.17,17.91l9.47-9.47-.47-5.18L39.7,12.74Z" fill="#50687f"/>
      <path id="Path_5" data-name="Path 5" d="M37.87,14.74a16.063,16.063,0,1,0,6.91,6.99l-5.05-.5-1.45,1.45a10,10,0,1,1-1.41-1.41l1.46-1.47Z" fill="#50687f"/>
      <path id="Path_6" data-name="Path 6" d="M54.54,29a24,24,0,0,0-2.811-11.271L47.8,21.61a1,1,0,0,1-.71.29,18,18,0,1,1-9.42-9.47,1,1,0,0,1,.28-.78l3.88-3.87a24,24,0,0,0-22.66,42.3l-6.42,8.26a1,1,0,0,0,.18,1.4.94.94,0,0,0,.61.21,1,1,0,0,0,.79-.38L21,51a24,24,0,0,0,19.06,0l6.68,8.59a1,1,0,0,0,.79.38.92.92,0,0,0,.61-.21,1,1,0,0,0,.18-1.4L41.9,50.1A24,24,0,0,0,54.54,29Z" fill="#50687f"/>
    </g>
  </g>
</svg>
