<svg xmlns="http://www.w3.org/2000/svg" width="84.72" height="67.278" viewBox="0 0 84.72 67.278">
  <g id="Group_1" data-name="Group 1" transform="translate(-786.643 -357)">
    <g id="noun_Travel_62578" transform="translate(784 345.64)">
      <path id="Path_61" data-name="Path 61" d="M65.488,65.37A3.18,3.18,0,0,1,61,64.989a24.522,24.522,0,0,1-13.282,8.8c2.99-2.082,5.463-5.671,7.121-10.209H60.3a2.8,2.8,0,0,1-.074-.279l-.285-2.165H55.63A40.486,40.486,0,0,0,57.068,51.3h1.574l-.322-2.444H57.068a44.144,44.144,0,0,0-.4-4.757c-.779.217-1.588.431-2.39.645a41.184,41.184,0,0,1,.344,4.112h-8.61l-.5,2.444h9.1a37.857,37.857,0,0,1-1.537,9.836H42.795v-5.4l-1.252.875a3.12,3.12,0,0,1-1.192.486v4.04H30.058a34.682,34.682,0,0,1-1.047-4.6c-.267.108-.542.217-.8.329-.524.223-.992.445-1.49.668.219,1.238.477,2.451.8,3.6H19.708c-.7.429-1.374.857-2,1.292-.491.346-.938.686-1.361,1.023a28.506,28.506,0,0,0,49.471,1.64ZM21.114,63.58H28.3c1.661,4.538,4.13,8.127,7.121,10.209A24.538,24.538,0,0,1,21.114,63.58Zm19.237,9.686c-3.883-.645-7.27-4.322-9.421-9.686h9.421Zm2.444-9.686h9.421c-2.149,5.361-5.54,9.041-9.421,9.686Z" fill="#50687f"/>
      <path id="Path_62" data-name="Path 62" d="M87.363,24.459c-4-2.627-12.348-.773-21.615,2.8L49.466,11.36l-5.485.188L57.07,30.955c-5.385,2.476-10.719,5.232-15.4,7.779l-6.756-5.1-2.806.327,6.977,8.789.6,11.208L42,52.341l1.677-8.3c5.19-1.188,11.015-2.66,16.687-4.372l3.053,23.206,4.232-3.495L69.31,36.686C78.628,33.219,86.111,29.072,87.363,24.459Z" fill="#50687f"/>
      <path id="Path_63" data-name="Path 63" d="M48.527,24.071l-1.348-2a28.507,28.507,0,0,0-33.8,23.639c1.755-1.324,3.46-2.488,5.021-3.5a23.853,23.853,0,0,1,1.308-3.194h3.933c1.418-.817,2.874-1.633,4.406-2.444H21.112a24.535,24.535,0,0,1,14.31-10.209A16.894,16.894,0,0,0,31.135,30.9a3.074,3.074,0,0,1,.6-.153l2.806-.327H34.6a10.06,10.06,0,0,1,5.752-3.532v6.794L41.964,34.9c.282-.151.549-.284.829-.435v-7.58a10.579,10.579,0,0,1,6.4,4.285l3.166-1.5Z" fill="#50687f"/>
      <path id="Path_64" data-name="Path 64" d="M35.919,43.951l-4.4-5.538c-2.987,1.531-6.322,3.345-9.807,5.517A71.668,71.668,0,0,0,9.99,52.8a30.813,30.813,0,0,0-5.1,6.258,17.933,17.933,0,0,0-1.767,3.991c-.115.353-.192.733-.28,1.1-.047.183-.069.375-.1.563l-.1.681v.832l.023,1.226a10.516,10.516,0,0,0,1.285,4.42A8.523,8.523,0,0,0,7,75a13.41,13.41,0,0,0,6.388,1.7,36.047,36.047,0,0,0,8.7-.9c.631-.134,1.162-.256,1.612-.361-5.88-.309-9.543-1.719-11.51-2.787a8.065,8.065,0,0,1-1.528-.977c-.2-.159-.317-.263-.317-.263h.038a4.454,4.454,0,0,1-.364-.346,3.442,3.442,0,0,1-.6-3.4c.054-.142.1-.271.14-.4l.239-.8.008-.023c.022-.125-.022.141-.016.106l.013-.028.022-.063.044-.121c.033-.079.051-.159.092-.242.079-.163.133-.326.228-.491A10.44,10.44,0,0,1,11.532,63.6a22.824,22.824,0,0,1,4.323-3.8A62.308,62.308,0,0,1,26.94,53.911c3.293-1.411,6.46-2.541,9.326-3.491Z" fill="#50687f"/>
    </g>
  </g>
</svg>
